<svg width="832" height="562" viewBox="0 0 832 562" fill="none" xmlns="http://www.w3.org/2000/svg">
<g opacity="0.06">
<path d="M297.914 510.864L295.972 513.278L300.542 515.129V511.91L297.914 510.864Z" fill="#0D0D0D"/>
<path d="M295.856 524.302L300.541 526.233V523.014L297.799 521.888L295.856 524.302Z" fill="#0D0D0D"/>
<path d="M295.856 535.407L300.541 537.338V534.12L297.799 532.993L295.856 535.407Z" fill="#0D0D0D"/>
<path d="M295.856 546.512L300.541 548.444V545.144L297.799 544.098L295.856 546.512Z" fill="#0D0D0D"/>
<path d="M295.399 560.997L300.541 558.904V555.686L287.401 560.997H295.399Z" fill="#0D0D0D"/>
<path d="M208.68 508.691H204.681V555.525H208.68V508.691Z" fill="#0D0D0D"/>
<path d="M222.392 503.138H218.393V561.078H222.392V503.138Z" fill="#0D0D0D"/>
<path d="M235.987 497.747H231.988V561.077H235.987V497.747Z" fill="#0D0D0D"/>
<path d="M249.583 492.033H245.584V561.077H249.583V492.033Z" fill="#0D0D0D"/>
<path d="M263.294 497.747H259.295V561.077H263.294V497.747Z" fill="#0D0D0D"/>
<path d="M276.891 503.138H272.892V561.078H276.891V503.138Z" fill="#0D0D0D"/>
<path d="M290.6 508.691H286.602V555.525H290.6V508.691Z" fill="#0D0D0D"/>
<path d="M184.459 558.261L191.314 560.997H199.198L186.516 555.847L184.459 558.261Z" fill="#0D0D0D"/>
<path d="M83.6854 559.387H79.6865V561.077H83.6854V559.387Z" fill="#0D0D0D"/>
<path d="M97.2821 553.674H93.2832V561.078H97.2821V553.674Z" fill="#0D0D0D"/>
<path d="M110.993 559.387H106.994V561.077H110.993V559.387Z" fill="#0D0D0D"/>
<path d="M34.1997 494.178L32.2002 496.618L89.687 519.994L91.6865 517.555L34.1997 494.178Z" fill="#0D0D0D"/>
<path d="M20.394 499.631L18.3945 502.07L89.6347 531.039L91.6341 528.6L20.394 499.631Z" fill="#0D0D0D"/>
<path d="M6.78754 505.262L4.78809 507.701L89.5836 542.184L91.5831 539.745L6.78754 505.262Z" fill="#0D0D0D"/>
<path d="M91.5687 550.858L-4.17676 511.909V515.128L89.6264 553.272L91.5687 550.858Z" fill="#0D0D0D"/>
<path d="M78.2009 556.491L-4.17676 523.015V526.233L76.2586 558.905L78.2009 556.491Z" fill="#0D0D0D"/>
<path d="M-4.17676 537.338L54.0932 560.997H62.091L-4.17676 534.119V537.338Z" fill="#0D0D0D"/>
<path d="M-4.17676 548.443L26.7863 560.997H34.7841L-4.17676 545.144V548.443Z" fill="#0D0D0D"/>
<path d="M-0.749114 554.318L-4.17676 555.686V558.905L1.30747 556.732L-0.749114 554.318Z" fill="#0D0D0D"/>
<path d="M9.99121 560.997H13.9901L13.0761 559.79L9.99121 560.997Z" fill="#0D0D0D"/>
<path d="M248.67 456.707L295.4 437.715H287.402L246.613 454.292L248.67 456.707Z" fill="#0D0D0D"/>
<path d="M248.67 467.811L300.542 446.728V443.509L246.613 465.397L248.67 467.811Z" fill="#0D0D0D"/>
<path d="M248.67 478.917L300.542 457.833V454.614L246.613 476.502L248.67 478.917Z" fill="#0D0D0D"/>
<path d="M248.67 490.021L300.542 468.938V465.719L246.613 487.607L248.67 490.021Z" fill="#0D0D0D"/>
<path d="M262.037 495.654L300.541 480.043V476.744L260.095 493.24L262.037 495.654Z" fill="#0D0D0D"/>
<path d="M275.519 501.207L300.54 491.068V487.849L273.576 498.793L275.519 501.207Z" fill="#0D0D0D"/>
<path d="M289.344 506.76L300.541 502.173V498.954L287.401 504.345L289.344 506.76Z" fill="#0D0D0D"/>
<path d="M222.392 437.715H218.393V437.878H222.392V437.715Z" fill="#0D0D0D"/>
<path d="M235.986 437.715H231.987V443.268H235.986V437.715Z" fill="#0D0D0D"/>
<path d="M249.583 437.715H245.584V448.74H249.583V437.715Z" fill="#0D0D0D"/>
<path d="M263.294 437.715H259.295V443.268H263.294V437.715Z" fill="#0D0D0D"/>
<path d="M276.891 437.715H272.892V437.878H276.891V437.715Z" fill="#0D0D0D"/>
<path d="M243.985 455.902L199.197 437.715H191.313L241.928 458.316L243.985 455.902Z" fill="#0D0D0D"/>
<path d="M172.734 438.009L170.734 440.448L241.974 469.418L243.974 466.979L172.734 438.009Z" fill="#0D0D0D"/>
<path d="M159.184 443.571L157.185 446.01L241.98 480.492L243.98 478.053L159.184 443.571Z" fill="#0D0D0D"/>
<path d="M145.578 449.179L143.578 451.618L241.929 491.612L243.929 489.173L145.578 449.179Z" fill="#0D0D0D"/>
<path d="M145.485 460.238L143.485 462.677L228.479 497.24L230.478 494.801L145.485 460.238Z" fill="#0D0D0D"/>
<path d="M145.533 471.353L143.533 473.792L214.872 502.802L216.872 500.362L145.533 471.353Z" fill="#0D0D0D"/>
<path d="M145.48 482.412L143.48 484.851L201.066 508.268L203.066 505.829L145.48 482.412Z" fill="#0D0D0D"/>
<path d="M151.599 492.64L94.3105 515.936L96.31 518.375L153.599 495.079L151.599 492.64Z" fill="#0D0D0D"/>
<path d="M165.276 498.16L94.2334 527.049L96.2329 529.488L167.275 500.599L165.276 498.16Z" fill="#0D0D0D"/>
<path d="M179.045 503.636L94.249 538.117L96.2485 540.557L181.044 506.075L179.045 503.636Z" fill="#0D0D0D"/>
<path d="M192.647 509.242L94.2959 549.236L96.2954 551.675L194.646 511.681L192.647 509.242Z" fill="#0D0D0D"/>
<path d="M192.669 520.345L107.676 554.908L109.675 557.347L194.669 522.784L192.669 520.345Z" fill="#0D0D0D"/>
<path d="M192.8 531.384L121.276 560.433L121.733 560.997H127.789L194.742 533.798L192.8 531.384Z" fill="#0D0D0D"/>
<path d="M192.8 542.489L147.212 560.997H155.095L194.742 544.903L192.8 542.489Z" fill="#0D0D0D"/>
<path d="M56.3788 447.05H52.3799V493.884H56.3788V447.05Z" fill="#0D0D0D"/>
<path d="M69.9745 441.497H65.9756V499.517H69.9745V441.497Z" fill="#0D0D0D"/>
<path d="M83.6854 437.715H79.6865V504.909H83.6854V437.715Z" fill="#0D0D0D"/>
<path d="M97.2821 437.715H93.2832V510.461H97.2821V437.715Z" fill="#0D0D0D"/>
<path d="M110.993 437.715H106.994V504.909H110.993V437.715Z" fill="#0D0D0D"/>
<path d="M124.588 441.497H120.589V499.517H124.588V441.497Z" fill="#0D0D0D"/>
<path d="M138.185 447.05H134.187V493.884H138.185V447.05Z" fill="#0D0D0D"/>
<path d="M64.4909 438.681L62.0916 437.715H54.0938L62.5486 441.095L64.4909 438.681Z" fill="#0D0D0D"/>
<path d="M50.7796 444.233L34.784 437.715H26.7861L48.723 446.648L50.7796 444.233Z" fill="#0D0D0D"/>
<path d="M13.9897 437.715H9.99083L-4.17676 443.509V446.728L15.018 438.922L13.9897 437.715Z" fill="#0D0D0D"/>
<path d="M26.7863 441.98L-4.17676 454.614V457.833L28.7286 444.475L26.7863 441.98Z" fill="#0D0D0D"/>
<path d="M40.3826 447.613L-4.17676 465.719V468.938L42.3249 450.027L40.3826 447.613Z" fill="#0D0D0D"/>
<path d="M40.3826 458.638L-4.17676 476.744V480.043L42.4392 461.052L40.3826 458.638Z" fill="#0D0D0D"/>
<path d="M40.3826 469.743L-4.17676 487.849V491.068L42.4392 472.157L40.3826 469.743Z" fill="#0D0D0D"/>
<path d="M40.3826 480.848L-4.17676 498.954V502.173L42.4392 483.262L40.3826 480.848Z" fill="#0D0D0D"/>
<path d="M127.788 437.715H121.732L123.218 439.566L127.788 437.715Z" fill="#0D0D0D"/>
<path d="M137.042 445.119L155.094 437.715H147.211L134.985 442.624L137.042 445.119Z" fill="#0D0D0D"/>
<path d="M297.914 388.308L295.972 390.722L300.542 392.572V389.354L297.914 388.308Z" fill="#0D0D0D"/>
<path d="M295.856 401.746L300.541 403.677V400.459L297.799 399.332L295.856 401.746Z" fill="#0D0D0D"/>
<path d="M295.856 412.851L300.541 414.782V411.564L297.799 410.437L295.856 412.851Z" fill="#0D0D0D"/>
<path d="M295.856 423.956L300.541 425.887V422.588L297.799 421.542L295.856 423.956Z" fill="#0D0D0D"/>
<path d="M295.399 438.441L300.541 436.349V433.13L287.401 438.441H295.399Z" fill="#0D0D0D"/>
<path d="M208.68 386.135H204.681V432.969H208.68V386.135Z" fill="#0D0D0D"/>
<path d="M222.392 380.582H218.393V438.521H222.392V380.582Z" fill="#0D0D0D"/>
<path d="M235.987 375.191H231.988V438.522H235.987V375.191Z" fill="#0D0D0D"/>
<path d="M249.583 369.477H245.584V438.521H249.583V369.477Z" fill="#0D0D0D"/>
<path d="M263.294 375.191H259.295V438.522H263.294V375.191Z" fill="#0D0D0D"/>
<path d="M276.891 380.582H272.892V438.521H276.891V380.582Z" fill="#0D0D0D"/>
<path d="M290.6 386.135H286.602V432.969H290.6V386.135Z" fill="#0D0D0D"/>
<path d="M184.459 435.705L191.314 438.441H199.198L186.516 433.291L184.459 435.705Z" fill="#0D0D0D"/>
<path d="M83.6854 436.832H79.6865V438.522H83.6854V436.832Z" fill="#0D0D0D"/>
<path d="M97.2821 431.118H93.2832V438.522H97.2821V431.118Z" fill="#0D0D0D"/>
<path d="M110.993 436.832H106.994V438.522H110.993V436.832Z" fill="#0D0D0D"/>
<path d="M34.1997 371.623L32.2002 374.062L89.687 397.439L91.6865 395L34.1997 371.623Z" fill="#0D0D0D"/>
<path d="M20.394 377.075L18.3945 379.514L89.6347 408.483L91.6341 406.044L20.394 377.075Z" fill="#0D0D0D"/>
<path d="M6.78754 382.706L4.78809 385.146L89.5836 419.627L91.5831 417.188L6.78754 382.706Z" fill="#0D0D0D"/>
<path d="M91.5687 428.302L-4.17676 389.354V392.572L89.6264 430.716L91.5687 428.302Z" fill="#0D0D0D"/>
<path d="M78.2009 433.935L-4.17676 400.459V403.678L76.2586 436.349L78.2009 433.935Z" fill="#0D0D0D"/>
<path d="M-4.17676 414.782L54.0932 438.441H62.091L-4.17676 411.564V414.782Z" fill="#0D0D0D"/>
<path d="M-4.17676 425.888L26.7863 438.441H34.7841L-4.17676 422.588V425.888Z" fill="#0D0D0D"/>
<path d="M-0.749114 431.762L-4.17676 433.13V436.349L1.30747 434.176L-0.749114 431.762Z" fill="#0D0D0D"/>
<path d="M9.99121 438.441H13.9901L13.0761 437.234L9.99121 438.441Z" fill="#0D0D0D"/>
<path d="M248.67 334.151L295.4 315.159H287.402L246.613 331.736L248.67 334.151Z" fill="#0D0D0D"/>
<path d="M248.67 345.256L300.542 324.172V320.953L246.613 342.841L248.67 345.256Z" fill="#0D0D0D"/>
<path d="M248.67 356.361L300.542 335.277V332.058L246.613 353.946L248.67 356.361Z" fill="#0D0D0D"/>
<path d="M248.67 367.466L300.542 346.382V343.163L246.613 365.052L248.67 367.466Z" fill="#0D0D0D"/>
<path d="M262.037 373.098L300.541 357.487V354.188L260.095 370.684L262.037 373.098Z" fill="#0D0D0D"/>
<path d="M275.519 378.651L300.54 368.512V365.293L273.576 376.237L275.519 378.651Z" fill="#0D0D0D"/>
<path d="M289.344 384.204L300.541 379.617V376.398L287.401 381.789L289.344 384.204Z" fill="#0D0D0D"/>
<path d="M222.392 315.159H218.393V315.322H222.392V315.159Z" fill="#0D0D0D"/>
<path d="M235.986 315.159H231.987V320.712H235.986V315.159Z" fill="#0D0D0D"/>
<path d="M249.583 315.159H245.584V326.184H249.583V315.159Z" fill="#0D0D0D"/>
<path d="M263.294 315.159H259.295V320.712H263.294V315.159Z" fill="#0D0D0D"/>
<path d="M276.891 315.159H272.892V315.322H276.891V315.159Z" fill="#0D0D0D"/>
<path d="M243.985 333.346L199.197 315.159H191.313L241.928 335.76L243.985 333.346Z" fill="#0D0D0D"/>
<path d="M172.734 315.453L170.734 317.892L241.974 346.862L243.974 344.423L172.734 315.453Z" fill="#0D0D0D"/>
<path d="M159.184 321.015L157.185 323.454L241.98 357.936L243.98 355.497L159.184 321.015Z" fill="#0D0D0D"/>
<path d="M145.578 326.623L143.578 329.062L241.929 369.056L243.929 366.617L145.578 326.623Z" fill="#0D0D0D"/>
<path d="M145.485 337.683L143.485 340.122L228.479 374.684L230.478 372.245L145.485 337.683Z" fill="#0D0D0D"/>
<path d="M145.533 348.797L143.533 351.236L214.872 380.246L216.872 377.807L145.533 348.797Z" fill="#0D0D0D"/>
<path d="M145.48 359.856L143.48 362.295L201.066 385.712L203.066 383.273L145.48 359.856Z" fill="#0D0D0D"/>
<path d="M151.599 370.084L94.3105 393.38L96.31 395.819L153.599 372.523L151.599 370.084Z" fill="#0D0D0D"/>
<path d="M165.276 375.604L94.2334 404.493L96.2329 406.932L167.275 378.043L165.276 375.604Z" fill="#0D0D0D"/>
<path d="M179.045 381.08L94.249 415.561L96.2485 418.001L181.044 383.519L179.045 381.08Z" fill="#0D0D0D"/>
<path d="M192.647 386.686L94.2959 426.68L96.2954 429.119L194.646 389.125L192.647 386.686Z" fill="#0D0D0D"/>
<path d="M192.669 397.789L107.676 432.352L109.675 434.791L194.669 400.229L192.669 397.789Z" fill="#0D0D0D"/>
<path d="M192.8 408.828L121.276 437.878L121.733 438.441H127.789L194.742 411.242L192.8 408.828Z" fill="#0D0D0D"/>
<path d="M192.8 419.933L147.212 438.441H155.095L194.742 422.347L192.8 419.933Z" fill="#0D0D0D"/>
<path d="M56.3788 324.494H52.3799V371.328H56.3788V324.494Z" fill="#0D0D0D"/>
<path d="M69.9745 318.942H65.9756V376.961H69.9745V318.942Z" fill="#0D0D0D"/>
<path d="M83.6854 315.159H79.6865V382.353H83.6854V315.159Z" fill="#0D0D0D"/>
<path d="M97.2821 315.159H93.2832V387.905H97.2821V315.159Z" fill="#0D0D0D"/>
<path d="M110.993 315.159H106.994V382.353H110.993V315.159Z" fill="#0D0D0D"/>
<path d="M124.588 318.942H120.589V376.961H124.588V318.942Z" fill="#0D0D0D"/>
<path d="M138.185 324.494H134.187V371.328H138.185V324.494Z" fill="#0D0D0D"/>
<path d="M64.4909 316.125L62.0916 315.159H54.0938L62.5486 318.539L64.4909 316.125Z" fill="#0D0D0D"/>
<path d="M50.7796 321.678L34.784 315.159H26.7861L48.723 324.092L50.7796 321.678Z" fill="#0D0D0D"/>
<path d="M13.9897 315.159H9.99083L-4.17676 320.953V324.172L15.018 316.367L13.9897 315.159Z" fill="#0D0D0D"/>
<path d="M26.7863 319.424L-4.17676 332.058V335.277L28.7286 321.919L26.7863 319.424Z" fill="#0D0D0D"/>
<path d="M40.3826 325.057L-4.17676 343.163V346.382L42.3249 327.472L40.3826 325.057Z" fill="#0D0D0D"/>
<path d="M40.3826 336.082L-4.17676 354.188V357.487L42.4392 338.496L40.3826 336.082Z" fill="#0D0D0D"/>
<path d="M40.3826 347.187L-4.17676 365.293V368.512L42.4392 349.601L40.3826 347.187Z" fill="#0D0D0D"/>
<path d="M40.3826 358.292L-4.17676 376.398V379.617L42.4392 360.706L40.3826 358.292Z" fill="#0D0D0D"/>
<path d="M127.788 315.159H121.732L123.218 317.01L127.788 315.159Z" fill="#0D0D0D"/>
<path d="M137.042 322.563L155.094 315.159H147.211L134.985 320.068L137.042 322.563Z" fill="#0D0D0D"/>
<path d="M297.914 264.946L295.972 267.36L300.542 269.211V265.992L297.914 264.946Z" fill="#0D0D0D"/>
<path d="M295.856 278.384L300.541 280.315V277.097L297.799 275.97L295.856 278.384Z" fill="#0D0D0D"/>
<path d="M295.856 289.489L300.541 291.42V288.201L297.799 287.075L295.856 289.489Z" fill="#0D0D0D"/>
<path d="M295.856 300.594L300.541 302.526V299.226L297.799 298.18L295.856 300.594Z" fill="#0D0D0D"/>
<path d="M295.399 315.079L300.541 312.987V309.768L287.401 315.079H295.399Z" fill="#0D0D0D"/>
<path d="M208.68 262.773H204.681V309.607H208.68V262.773Z" fill="#0D0D0D"/>
<path d="M222.391 257.22H218.393V315.159H222.391V257.22Z" fill="#0D0D0D"/>
<path d="M235.987 251.829H231.988V315.159H235.987V251.829Z" fill="#0D0D0D"/>
<path d="M249.583 246.115H245.584V315.159H249.583V246.115Z" fill="#0D0D0D"/>
<path d="M263.294 251.829H259.295V315.159H263.294V251.829Z" fill="#0D0D0D"/>
<path d="M276.891 257.22H272.892V315.159H276.891V257.22Z" fill="#0D0D0D"/>
<path d="M290.6 262.773H286.602V309.607H290.6V262.773Z" fill="#0D0D0D"/>
<path d="M184.459 312.343L191.314 315.079H199.198L186.516 309.929L184.459 312.343Z" fill="#0D0D0D"/>
<path d="M83.6854 313.47H79.6865V315.16H83.6854V313.47Z" fill="#0D0D0D"/>
<path d="M97.2821 307.756H93.2832V315.16H97.2821V307.756Z" fill="#0D0D0D"/>
<path d="M110.993 313.47H106.994V315.16H110.993V313.47Z" fill="#0D0D0D"/>
<path d="M34.1997 248.261L32.2002 250.7L89.687 274.076L91.6865 271.637L34.1997 248.261Z" fill="#0D0D0D"/>
<path d="M20.394 253.713L18.3945 256.152L89.6347 285.121L91.6341 282.682L20.394 253.713Z" fill="#0D0D0D"/>
<path d="M6.78754 259.345L4.78809 261.784L89.5836 296.265L91.5831 293.826L6.78754 259.345Z" fill="#0D0D0D"/>
<path d="M91.5687 304.94L-4.17676 265.992V269.211L89.6264 307.354L91.5687 304.94Z" fill="#0D0D0D"/>
<path d="M78.2009 310.572L-4.17676 277.097V280.315L76.2586 312.986L78.2009 310.572Z" fill="#0D0D0D"/>
<path d="M-4.17676 291.42L54.0932 315.079H62.091L-4.17676 288.201V291.42Z" fill="#0D0D0D"/>
<path d="M-4.17676 302.525L26.7863 315.079H34.7841L-4.17676 299.226V302.525Z" fill="#0D0D0D"/>
<path d="M-0.749114 308.4L-4.17676 309.768V312.987L1.30747 310.814L-0.749114 308.4Z" fill="#0D0D0D"/>
<path d="M9.99121 315.079H13.9901L13.0761 313.872L9.99121 315.079Z" fill="#0D0D0D"/>
<path d="M248.67 210.788L295.4 191.797H287.402L246.613 208.374L248.67 210.788Z" fill="#0D0D0D"/>
<path d="M248.67 221.894L300.542 200.81V197.591L246.613 219.48L248.67 221.894Z" fill="#0D0D0D"/>
<path d="M248.67 232.999L300.542 211.915V208.696L246.613 230.584L248.67 232.999Z" fill="#0D0D0D"/>
<path d="M248.67 244.104L300.542 223.02V219.801L246.613 241.689L248.67 244.104Z" fill="#0D0D0D"/>
<path d="M262.037 249.737L300.541 234.125V230.826L260.095 247.323L262.037 249.737Z" fill="#0D0D0D"/>
<path d="M275.518 255.289L300.54 245.149V241.931L273.576 252.875L275.518 255.289Z" fill="#0D0D0D"/>
<path d="M289.344 260.841L300.541 256.255V253.036L287.401 258.427L289.344 260.841Z" fill="#0D0D0D"/>
<path d="M222.391 191.797H218.393V191.96H222.391V191.797Z" fill="#0D0D0D"/>
<path d="M235.986 191.797H231.987V197.35H235.986V191.797Z" fill="#0D0D0D"/>
<path d="M249.583 191.797H245.584V202.822H249.583V191.797Z" fill="#0D0D0D"/>
<path d="M263.294 191.797H259.295V197.35H263.294V191.797Z" fill="#0D0D0D"/>
<path d="M276.891 191.797H272.892V191.96H276.891V191.797Z" fill="#0D0D0D"/>
<path d="M243.985 209.984L199.197 191.797H191.313L241.928 212.398L243.985 209.984Z" fill="#0D0D0D"/>
<path d="M172.734 192.091L170.734 194.53L241.974 223.5L243.974 221.061L172.734 192.091Z" fill="#0D0D0D"/>
<path d="M159.184 197.653L157.185 200.092L241.98 234.574L243.98 232.135L159.184 197.653Z" fill="#0D0D0D"/>
<path d="M145.578 203.26L143.578 205.7L241.929 245.694L243.929 243.255L145.578 203.26Z" fill="#0D0D0D"/>
<path d="M145.485 214.32L143.485 216.76L228.479 251.322L230.478 248.883L145.485 214.32Z" fill="#0D0D0D"/>
<path d="M145.533 225.435L143.533 227.874L214.872 256.884L216.872 254.445L145.533 225.435Z" fill="#0D0D0D"/>
<path d="M145.48 236.494L143.48 238.933L201.066 262.35L203.066 259.911L145.48 236.494Z" fill="#0D0D0D"/>
<path d="M151.599 246.722L94.3105 270.018L96.31 272.457L153.599 249.161L151.599 246.722Z" fill="#0D0D0D"/>
<path d="M165.276 252.242L94.2334 281.131L96.2329 283.57L167.275 254.681L165.276 252.242Z" fill="#0D0D0D"/>
<path d="M179.045 257.718L94.249 292.199L96.2485 294.639L181.044 260.157L179.045 257.718Z" fill="#0D0D0D"/>
<path d="M192.647 263.324L94.2959 303.318L96.2954 305.757L194.646 265.763L192.647 263.324Z" fill="#0D0D0D"/>
<path d="M192.669 274.428L107.676 308.99L109.675 311.429L194.669 276.867L192.669 274.428Z" fill="#0D0D0D"/>
<path d="M192.8 285.466L121.276 314.516L121.733 315.079H127.789L194.742 287.88L192.8 285.466Z" fill="#0D0D0D"/>
<path d="M192.8 296.571L147.212 315.079H155.095L194.742 298.985L192.8 296.571Z" fill="#0D0D0D"/>
<path d="M56.3788 201.132H52.3799V247.966H56.3788V201.132Z" fill="#0D0D0D"/>
<path d="M69.9745 195.58H65.9756V253.599H69.9745V195.58Z" fill="#0D0D0D"/>
<path d="M83.6854 191.797H79.6865V258.991H83.6854V191.797Z" fill="#0D0D0D"/>
<path d="M97.2821 191.797H93.2832V264.543H97.2821V191.797Z" fill="#0D0D0D"/>
<path d="M110.993 191.797H106.994V258.991H110.993V191.797Z" fill="#0D0D0D"/>
<path d="M124.588 195.58H120.589V253.599H124.588V195.58Z" fill="#0D0D0D"/>
<path d="M138.185 201.132H134.187V247.966H138.185V201.132Z" fill="#0D0D0D"/>
<path d="M64.4909 192.763L62.0916 191.797H54.0938L62.5486 195.177L64.4909 192.763Z" fill="#0D0D0D"/>
<path d="M50.7796 198.316L34.784 191.797H26.7861L48.723 200.73L50.7796 198.316Z" fill="#0D0D0D"/>
<path d="M13.9897 191.797H9.99083L-4.17676 197.591V200.81L15.018 193.005L13.9897 191.797Z" fill="#0D0D0D"/>
<path d="M26.7863 196.062L-4.17676 208.696V211.915L28.7286 198.557L26.7863 196.062Z" fill="#0D0D0D"/>
<path d="M40.3826 201.695L-4.17676 219.801V223.02L42.3249 204.11L40.3826 201.695Z" fill="#0D0D0D"/>
<path d="M40.3826 212.72L-4.17676 230.826V234.125L42.4392 215.134L40.3826 212.72Z" fill="#0D0D0D"/>
<path d="M40.3826 223.825L-4.17676 241.931V245.15L42.4392 226.239L40.3826 223.825Z" fill="#0D0D0D"/>
<path d="M40.3826 234.93L-4.17676 253.036V256.255L42.4392 237.344L40.3826 234.93Z" fill="#0D0D0D"/>
<path d="M127.788 191.797H121.732L123.218 193.648L127.788 191.797Z" fill="#0D0D0D"/>
<path d="M137.042 199.201L155.094 191.797H147.211L134.985 196.706L137.042 199.201Z" fill="#0D0D0D"/>
<path d="M297.914 141.583L295.972 143.998L300.542 145.849V142.63L297.914 141.583Z" fill="#0D0D0D"/>
<path d="M295.856 155.022L300.541 156.953V153.735L297.799 152.608L295.856 155.022Z" fill="#0D0D0D"/>
<path d="M295.856 166.127L300.541 168.058V164.839L297.799 163.713L295.856 166.127Z" fill="#0D0D0D"/>
<path d="M295.856 177.232L300.541 179.163V175.864L297.799 174.818L295.856 177.232Z" fill="#0D0D0D"/>
<path d="M295.399 191.717L300.541 189.625V186.406L287.401 191.717H295.399Z" fill="#0D0D0D"/>
<path d="M208.68 139.411H204.681V186.245H208.68V139.411Z" fill="#0D0D0D"/>
<path d="M222.392 133.858H218.393V191.797H222.392V133.858Z" fill="#0D0D0D"/>
<path d="M235.987 128.467H231.988V191.797H235.987V128.467Z" fill="#0D0D0D"/>
<path d="M249.583 122.753H245.584V191.797H249.583V122.753Z" fill="#0D0D0D"/>
<path d="M263.294 128.467H259.295V191.797H263.294V128.467Z" fill="#0D0D0D"/>
<path d="M276.891 133.858H272.892V191.797H276.891V133.858Z" fill="#0D0D0D"/>
<path d="M290.6 139.411H286.602V186.245H290.6V139.411Z" fill="#0D0D0D"/>
<path d="M184.459 188.981L191.314 191.717H199.198L186.516 186.567L184.459 188.981Z" fill="#0D0D0D"/>
<path d="M83.6854 190.107H79.6865V191.797H83.6854V190.107Z" fill="#0D0D0D"/>
<path d="M97.2821 184.394H93.2832V191.797H97.2821V184.394Z" fill="#0D0D0D"/>
<path d="M110.993 190.107H106.994V191.797H110.993V190.107Z" fill="#0D0D0D"/>
<path d="M34.1997 124.899L32.2002 127.338L89.687 150.715L91.6865 148.275L34.1997 124.899Z" fill="#0D0D0D"/>
<path d="M20.394 130.35L18.3945 132.79L89.6347 161.759L91.6341 159.32L20.394 130.35Z" fill="#0D0D0D"/>
<path d="M6.78754 135.982L4.78809 138.421L89.5836 172.903L91.5831 170.464L6.78754 135.982Z" fill="#0D0D0D"/>
<path d="M91.5687 181.577L-4.17676 142.629V145.848L89.6264 183.991L91.5687 181.577Z" fill="#0D0D0D"/>
<path d="M78.2009 187.21L-4.17676 153.734V156.953L76.2586 189.624L78.2009 187.21Z" fill="#0D0D0D"/>
<path d="M-4.17676 168.058L54.0932 191.716H62.091L-4.17676 164.839V168.058Z" fill="#0D0D0D"/>
<path d="M-4.17676 179.163L26.7863 191.717H34.7841L-4.17676 175.864V179.163Z" fill="#0D0D0D"/>
<path d="M-0.749114 185.038L-4.17676 186.406V189.625L1.30747 187.452L-0.749114 185.038Z" fill="#0D0D0D"/>
<path d="M9.99121 191.717H13.9901L13.0761 190.51L9.99121 191.717Z" fill="#0D0D0D"/>
<path d="M248.67 87.4266L295.4 68.4354H287.402L246.613 85.0124L248.67 87.4266Z" fill="#0D0D0D"/>
<path d="M248.67 98.5315L300.542 77.4481V74.2292L246.613 96.1174L248.67 98.5315Z" fill="#0D0D0D"/>
<path d="M248.67 109.636L300.542 88.553V85.3342L246.613 107.222L248.67 109.636Z" fill="#0D0D0D"/>
<path d="M248.67 120.741L300.542 99.6581V96.4393L246.613 118.327L248.67 120.741Z" fill="#0D0D0D"/>
<path d="M262.037 126.374L300.541 110.763V107.464L260.095 123.96L262.037 126.374Z" fill="#0D0D0D"/>
<path d="M275.519 131.927L300.54 121.788V118.569L273.576 129.513L275.519 131.927Z" fill="#0D0D0D"/>
<path d="M289.344 137.479L300.541 132.893V129.674L287.401 135.065L289.344 137.479Z" fill="#0D0D0D"/>
<path d="M222.392 68.4354H218.393V68.5984H222.392V68.4354Z" fill="#0D0D0D"/>
<path d="M235.986 68.4354H231.987V73.9879H235.986V68.4354Z" fill="#0D0D0D"/>
<path d="M249.583 68.4354H245.584V79.4599H249.583V68.4354Z" fill="#0D0D0D"/>
<path d="M263.294 68.4354H259.295V73.9879H263.294V68.4354Z" fill="#0D0D0D"/>
<path d="M276.891 68.4354H272.892V68.5984H276.891V68.4354Z" fill="#0D0D0D"/>
<path d="M243.985 86.6218L199.197 68.4354H191.313L241.928 89.036L243.985 86.6218Z" fill="#0D0D0D"/>
<path d="M172.734 68.7289L170.734 71.1679L241.974 100.137L243.974 97.6984L172.734 68.7289Z" fill="#0D0D0D"/>
<path d="M159.184 74.2912L157.185 76.7303L241.98 111.212L243.98 108.773L159.184 74.2912Z" fill="#0D0D0D"/>
<path d="M145.578 79.8985L143.578 82.3376L241.929 122.332L243.929 119.893L145.578 79.8985Z" fill="#0D0D0D"/>
<path d="M145.485 90.9583L143.485 93.3974L228.479 127.96L230.478 125.521L145.485 90.9583Z" fill="#0D0D0D"/>
<path d="M145.533 102.073L143.533 104.512L214.872 133.522L216.872 131.083L145.533 102.073Z" fill="#0D0D0D"/>
<path d="M145.48 113.132L143.48 115.571L201.066 138.988L203.066 136.549L145.48 113.132Z" fill="#0D0D0D"/>
<path d="M151.599 123.359L94.3105 146.656L96.31 149.095L153.599 125.798L151.599 123.359Z" fill="#0D0D0D"/>
<path d="M165.276 128.88L94.2334 157.769L96.2329 160.208L167.275 131.319L165.276 128.88Z" fill="#0D0D0D"/>
<path d="M179.045 134.356L94.249 168.837L96.2485 171.276L181.044 136.795L179.045 134.356Z" fill="#0D0D0D"/>
<path d="M192.647 139.962L94.2959 179.956L96.2954 182.395L194.646 142.401L192.647 139.962Z" fill="#0D0D0D"/>
<path d="M192.669 151.065L107.676 185.628L109.675 188.067L194.669 153.504L192.669 151.065Z" fill="#0D0D0D"/>
<path d="M192.8 162.103L121.276 191.154L121.733 191.717H127.789L194.742 164.518L192.8 162.103Z" fill="#0D0D0D"/>
<path d="M192.8 173.208L147.212 191.717H155.095L194.742 175.622L192.8 173.208Z" fill="#0D0D0D"/>
<path d="M56.3788 77.7701H52.3799V124.604H56.3788V77.7701Z" fill="#0D0D0D"/>
<path d="M69.9745 72.2175H65.9756V130.237H69.9745V72.2175Z" fill="#0D0D0D"/>
<path d="M83.6854 68.4354H79.6865V135.629H83.6854V68.4354Z" fill="#0D0D0D"/>
<path d="M97.2821 68.4354H93.2832V141.181H97.2821V68.4354Z" fill="#0D0D0D"/>
<path d="M110.993 68.4354H106.994V135.629H110.993V68.4354Z" fill="#0D0D0D"/>
<path d="M124.588 72.2175H120.589V130.237H124.588V72.2175Z" fill="#0D0D0D"/>
<path d="M138.185 77.7701H134.187V124.604H138.185V77.7701Z" fill="#0D0D0D"/>
<path d="M64.4909 69.401L62.0916 68.4354H54.0938L62.5486 71.8152L64.4909 69.401Z" fill="#0D0D0D"/>
<path d="M50.7796 74.9535L34.784 68.4354H26.7861L48.723 77.3677L50.7796 74.9535Z" fill="#0D0D0D"/>
<path d="M13.9897 68.4353H9.99083L-4.17676 74.2292V77.448L15.018 69.6424L13.9897 68.4353Z" fill="#0D0D0D"/>
<path d="M26.7863 72.7003L-4.17676 85.3342V88.5531L28.7286 75.1949L26.7863 72.7003Z" fill="#0D0D0D"/>
<path d="M40.3826 78.3333L-4.17676 96.4392V99.6581L42.3249 80.7474L40.3826 78.3333Z" fill="#0D0D0D"/>
<path d="M40.3826 89.3577L-4.17676 107.464V110.763L42.4392 91.7718L40.3826 89.3577Z" fill="#0D0D0D"/>
<path d="M40.3826 100.463L-4.17676 118.569V121.788L42.4392 102.877L40.3826 100.463Z" fill="#0D0D0D"/>
<path d="M40.3826 111.568L-4.17676 129.674V132.893L42.4392 113.982L40.3826 111.568Z" fill="#0D0D0D"/>
<path d="M127.788 68.4354H121.732L123.218 70.2862L127.788 68.4354Z" fill="#0D0D0D"/>
<path d="M137.042 75.8387L155.094 68.4354H147.211L134.985 73.3441L137.042 75.8387Z" fill="#0D0D0D"/>
<path d="M297.913 19.0275L295.971 21.4416L300.541 23.2924V20.0736L297.913 19.0275Z" fill="#0D0D0D"/>
<path d="M295.855 32.4664L300.54 34.3977V31.1789L297.798 30.0523L295.855 32.4664Z" fill="#0D0D0D"/>
<path d="M295.855 43.5713L300.54 45.5026V42.2838L297.798 41.1572L295.855 43.5713Z" fill="#0D0D0D"/>
<path d="M295.855 54.6762L300.54 56.6076V53.3082L297.798 52.2621L295.855 54.6762Z" fill="#0D0D0D"/>
<path d="M295.399 69.161L300.541 67.0688V63.8499L287.401 69.161H295.399Z" fill="#0D0D0D"/>
<path d="M208.68 16.8551H204.681V63.6892H208.68V16.8551Z" fill="#0D0D0D"/>
<path d="M222.392 11.3023H218.393V69.2414H222.392V11.3023Z" fill="#0D0D0D"/>
<path d="M235.987 5.91101H231.988V69.2417H235.987V5.91101Z" fill="#0D0D0D"/>
<path d="M249.582 0.197388H245.583V69.2415H249.582V0.197388Z" fill="#0D0D0D"/>
<path d="M263.294 5.91101H259.295V69.2417H263.294V5.91101Z" fill="#0D0D0D"/>
<path d="M276.89 11.3023H272.891V69.2414H276.89V11.3023Z" fill="#0D0D0D"/>
<path d="M290.6 16.8551H286.602V63.6892H290.6V16.8551Z" fill="#0D0D0D"/>
<path d="M184.458 66.4252L191.313 69.1612H199.197L186.515 64.0111L184.458 66.4252Z" fill="#0D0D0D"/>
<path d="M83.6845 67.552H79.6855V69.2419H83.6845V67.552Z" fill="#0D0D0D"/>
<path d="M97.2821 61.8381H93.2832V69.2415H97.2821V61.8381Z" fill="#0D0D0D"/>
<path d="M110.992 67.552H106.993V69.2419H110.992V67.552Z" fill="#0D0D0D"/>
<path d="M34.1987 2.34281L32.1992 4.78189L89.686 28.1587L91.6855 25.7196L34.1987 2.34281Z" fill="#0D0D0D"/>
<path d="M20.393 7.79485L18.3936 10.2339L89.6337 39.2035L91.6331 36.7644L20.393 7.79485Z" fill="#0D0D0D"/>
<path d="M6.78754 13.4266L4.78809 15.8657L89.5836 50.3475L91.5831 47.9084L6.78754 13.4266Z" fill="#0D0D0D"/>
<path d="M91.5687 59.0218L-4.17676 20.0738V23.2927L89.6264 61.4359L91.5687 59.0218Z" fill="#0D0D0D"/>
<path d="M78.2009 64.6549L-4.17676 31.179V34.3978L76.2586 67.069L78.2009 64.6549Z" fill="#0D0D0D"/>
<path d="M-4.17676 45.5025L54.0932 69.1609H62.091L-4.17676 42.2837V45.5025Z" fill="#0D0D0D"/>
<path d="M-4.17676 56.6074L26.7863 69.1609H34.7841L-4.17676 53.3081V56.6074Z" fill="#0D0D0D"/>
<path d="M-0.749114 62.4822L-4.17676 63.8503V67.0691L1.30747 64.8964L-0.749114 62.4822Z" fill="#0D0D0D"/>
<path d="M9.99121 69.1612H13.9901L13.0761 67.9541L9.99121 69.1612Z" fill="#0D0D0D"/>
<path d="M275.519 9.37115L300.54 -0.768188V-3.98703L273.576 6.95702L275.519 9.37115Z" fill="#0D0D0D"/>
<path d="M289.344 14.9235L300.541 10.3367V7.11786L287.401 12.5094L289.344 14.9235Z" fill="#0D0D0D"/>
<path d="M151.599 0.803543L94.3105 24.0999L96.31 26.539L153.599 3.24262L151.599 0.803543Z" fill="#0D0D0D"/>
<path d="M165.276 6.32398L94.2334 35.2131L96.2329 37.6521L167.275 8.76306L165.276 6.32398Z" fill="#0D0D0D"/>
<path d="M179.045 11.8002L94.249 46.282L96.2485 48.7211L181.044 14.2393L179.045 11.8002Z" fill="#0D0D0D"/>
<path d="M192.647 17.406L94.2959 57.4001L96.2954 59.8392L194.646 19.8451L192.647 17.406Z" fill="#0D0D0D"/>
<path d="M192.669 28.5098L107.676 63.0721L109.675 65.5112L194.669 30.9489L192.669 28.5098Z" fill="#0D0D0D"/>
<path d="M192.799 39.5479L121.275 68.5979L121.732 69.1612H127.788L194.741 41.962L192.799 39.5479Z" fill="#0D0D0D"/>
<path d="M192.799 50.6526L147.211 69.161H155.095L194.741 53.0668L192.799 50.6526Z" fill="#0D0D0D"/>
<path d="M513.395 139.411H509.396V186.245H513.395V139.411Z" fill="#0D0D0D"/>
<path d="M527.106 133.858H523.107V191.797H527.106V133.858Z" fill="#0D0D0D"/>
<path d="M540.702 128.467H536.703V191.797H540.702V128.467Z" fill="#0D0D0D"/>
<path d="M554.298 122.753H550.299V191.797H554.298V122.753Z" fill="#0D0D0D"/>
<path d="M568.009 128.467H564.01V191.797H568.009V128.467Z" fill="#0D0D0D"/>
<path d="M581.605 133.858H577.606V191.797H581.605V133.858Z" fill="#0D0D0D"/>
<path d="M595.316 139.411H591.317V186.245H595.316V139.411Z" fill="#0D0D0D"/>
<path d="M489.173 188.981L496.028 191.717H503.912L491.229 186.567L489.173 188.981Z" fill="#0D0D0D"/>
<path d="M388.4 190.107H384.401V191.797H388.4V190.107Z" fill="#0D0D0D"/>
<path d="M401.998 184.394H397.999V191.797H401.998V184.394Z" fill="#0D0D0D"/>
<path d="M415.708 190.107H411.709V191.797H415.708V190.107Z" fill="#0D0D0D"/>
<path d="M338.914 124.898L336.915 127.337L394.402 150.714L396.401 148.275L338.914 124.898Z" fill="#0D0D0D"/>
<path d="M325.109 130.35L323.109 132.79L394.349 161.759L396.349 159.32L325.109 130.35Z" fill="#0D0D0D"/>
<path d="M311.502 135.983L309.503 138.422L394.298 172.904L396.298 170.464L311.502 135.983Z" fill="#0D0D0D"/>
<path d="M396.285 181.577L300.539 142.629V145.848L394.342 183.991L396.285 181.577Z" fill="#0D0D0D"/>
<path d="M382.917 187.21L300.539 153.734V156.953L380.974 189.624L382.917 187.21Z" fill="#0D0D0D"/>
<path d="M300.539 168.058L358.809 191.716H366.807L300.539 164.839V168.058Z" fill="#0D0D0D"/>
<path d="M300.539 179.163L331.502 191.717H339.5L300.539 175.864V179.163Z" fill="#0D0D0D"/>
<path d="M303.967 185.038L300.539 186.406V189.625L306.023 187.452L303.967 185.038Z" fill="#0D0D0D"/>
<path d="M314.707 191.717H318.706L317.792 190.51L314.707 191.717Z" fill="#0D0D0D"/>
<path d="M553.385 87.4266L600.115 68.4354H592.117L551.328 85.0124L553.385 87.4266Z" fill="#0D0D0D"/>
<path d="M553.385 98.5315L605.256 77.4481V74.2292L551.328 96.1174L553.385 98.5315Z" fill="#0D0D0D"/>
<path d="M553.385 109.636L605.256 88.553V85.3342L551.328 107.222L553.385 109.636Z" fill="#0D0D0D"/>
<path d="M553.385 120.741L605.256 99.6581V96.4393L551.328 118.327L553.385 120.741Z" fill="#0D0D0D"/>
<path d="M566.753 126.374L605.257 110.763V107.464L564.811 123.96L566.753 126.374Z" fill="#0D0D0D"/>
<path d="M580.233 131.927L605.255 121.788V118.569L578.291 129.513L580.233 131.927Z" fill="#0D0D0D"/>
<path d="M594.06 137.479L605.257 132.893V129.674L592.117 135.065L594.06 137.479Z" fill="#0D0D0D"/>
<path d="M527.106 68.4354H523.107V68.5984H527.106V68.4354Z" fill="#0D0D0D"/>
<path d="M540.702 68.4354H536.703V73.9879H540.702V68.4354Z" fill="#0D0D0D"/>
<path d="M554.298 68.4354H550.299V79.4599H554.298V68.4354Z" fill="#0D0D0D"/>
<path d="M568.009 68.4354H564.01V73.9879H568.009V68.4354Z" fill="#0D0D0D"/>
<path d="M581.605 68.4354H577.606V68.5984H581.605V68.4354Z" fill="#0D0D0D"/>
<path d="M548.7 86.6218L503.912 68.4354H496.028L546.643 89.036L548.7 86.6218Z" fill="#0D0D0D"/>
<path d="M477.45 68.7289L475.45 71.1679L546.69 100.137L548.69 97.6984L477.45 68.7289Z" fill="#0D0D0D"/>
<path d="M463.899 74.2912L461.899 76.7303L546.695 111.212L548.694 108.773L463.899 74.2912Z" fill="#0D0D0D"/>
<path d="M450.291 79.8985L448.292 82.3376L546.643 122.332L548.642 119.893L450.291 79.8985Z" fill="#0D0D0D"/>
<path d="M450.199 90.9583L448.199 93.3974L533.193 127.96L535.192 125.521L450.199 90.9583Z" fill="#0D0D0D"/>
<path d="M450.247 102.073L448.247 104.512L519.586 133.522L521.586 131.083L450.247 102.073Z" fill="#0D0D0D"/>
<path d="M450.195 113.132L448.195 115.571L505.781 138.988L507.781 136.549L450.195 113.132Z" fill="#0D0D0D"/>
<path d="M456.314 123.359L399.025 146.656L401.025 149.095L458.314 125.798L456.314 123.359Z" fill="#0D0D0D"/>
<path d="M469.991 128.88L398.949 157.769L400.949 160.208L471.991 131.319L469.991 128.88Z" fill="#0D0D0D"/>
<path d="M483.758 134.356L398.963 168.837L400.962 171.276L485.758 136.795L483.758 134.356Z" fill="#0D0D0D"/>
<path d="M497.363 139.962L399.012 179.956L401.011 182.395L499.362 142.401L497.363 139.962Z" fill="#0D0D0D"/>
<path d="M497.384 151.065L412.391 185.628L414.39 188.067L499.384 153.504L497.384 151.065Z" fill="#0D0D0D"/>
<path d="M497.515 162.103L425.991 191.154L426.448 191.717H432.504L499.457 164.518L497.515 162.103Z" fill="#0D0D0D"/>
<path d="M497.514 173.208L451.927 191.717H459.81L499.457 175.622L497.514 173.208Z" fill="#0D0D0D"/>
<path d="M361.095 77.7701H357.096V124.604H361.095V77.7701Z" fill="#0D0D0D"/>
<path d="M374.69 72.2175H370.691V130.237H374.69V72.2175Z" fill="#0D0D0D"/>
<path d="M388.4 68.4354H384.401V135.629H388.4V68.4354Z" fill="#0D0D0D"/>
<path d="M401.998 68.4354H397.999V141.181H401.998V68.4354Z" fill="#0D0D0D"/>
<path d="M415.708 68.4354H411.709V135.629H415.708V68.4354Z" fill="#0D0D0D"/>
<path d="M429.304 72.2175H425.305V130.237H429.304V72.2175Z" fill="#0D0D0D"/>
<path d="M442.9 77.7701H438.901V124.604H442.9V77.7701Z" fill="#0D0D0D"/>
<path d="M369.206 69.401L366.806 68.4354H358.809L367.263 71.8152L369.206 69.401Z" fill="#0D0D0D"/>
<path d="M355.495 74.9535L339.5 68.4354H331.502L353.439 77.3677L355.495 74.9535Z" fill="#0D0D0D"/>
<path d="M318.706 68.4353H314.707L300.539 74.2292V77.448L319.734 69.6424L318.706 68.4353Z" fill="#0D0D0D"/>
<path d="M331.502 72.7003L300.539 85.3342V88.5531L333.444 75.1949L331.502 72.7003Z" fill="#0D0D0D"/>
<path d="M345.098 78.3333L300.539 96.4392V99.6581L347.041 80.7474L345.098 78.3333Z" fill="#0D0D0D"/>
<path d="M345.098 89.3577L300.539 107.464V110.763L347.155 91.7718L345.098 89.3577Z" fill="#0D0D0D"/>
<path d="M345.098 100.463L300.539 118.569V121.788L347.155 102.877L345.098 100.463Z" fill="#0D0D0D"/>
<path d="M345.098 111.568L300.539 129.674V132.893L347.155 113.982L345.098 111.568Z" fill="#0D0D0D"/>
<path d="M432.504 68.4354H426.448L427.934 70.2862L432.504 68.4354Z" fill="#0D0D0D"/>
<path d="M441.758 75.8387L459.81 68.4354H451.926L439.701 73.3441L441.758 75.8387Z" fill="#0D0D0D"/>
<path d="M602.629 19.0275L600.687 21.4416L605.257 23.2924V20.0736L602.629 19.0275Z" fill="#0D0D0D"/>
<path d="M600.571 32.4664L605.256 34.3977V31.1789L602.514 30.0523L600.571 32.4664Z" fill="#0D0D0D"/>
<path d="M600.571 43.5713L605.256 45.5026V42.2838L602.514 41.1572L600.571 43.5713Z" fill="#0D0D0D"/>
<path d="M600.571 54.6762L605.256 56.6076V53.3082L602.514 52.2621L600.571 54.6762Z" fill="#0D0D0D"/>
<path d="M600.115 69.161L605.256 67.0688V63.8499L592.117 69.161H600.115Z" fill="#0D0D0D"/>
<path d="M513.395 16.8551H509.396V63.6892H513.395V16.8551Z" fill="#0D0D0D"/>
<path d="M527.106 11.3023H523.107V69.2414H527.106V11.3023Z" fill="#0D0D0D"/>
<path d="M540.702 5.91101H536.703V69.2417H540.702V5.91101Z" fill="#0D0D0D"/>
<path d="M554.298 0.197388H550.299V69.2415H554.298V0.197388Z" fill="#0D0D0D"/>
<path d="M568.009 5.91101H564.01V69.2417H568.009V5.91101Z" fill="#0D0D0D"/>
<path d="M581.605 11.3023H577.606V69.2414H581.605V11.3023Z" fill="#0D0D0D"/>
<path d="M595.316 16.8551H591.317V63.6892H595.316V16.8551Z" fill="#0D0D0D"/>
<path d="M489.173 66.4252L496.028 69.1612H503.912L491.229 64.0111L489.173 66.4252Z" fill="#0D0D0D"/>
<path d="M388.4 67.552H384.401V69.2419H388.4V67.552Z" fill="#0D0D0D"/>
<path d="M401.997 61.8381H397.998V69.2415H401.997V61.8381Z" fill="#0D0D0D"/>
<path d="M415.707 67.552H411.708V69.2419H415.707V67.552Z" fill="#0D0D0D"/>
<path d="M338.914 2.34281L336.915 4.78189L394.402 28.1587L396.401 25.7196L338.914 2.34281Z" fill="#0D0D0D"/>
<path d="M325.109 7.79486L323.109 10.2339L394.349 39.2035L396.349 36.7644L325.109 7.79486Z" fill="#0D0D0D"/>
<path d="M311.502 13.4266L309.503 15.8657L394.298 50.3475L396.298 47.9084L311.502 13.4266Z" fill="#0D0D0D"/>
<path d="M396.285 59.0218L300.539 20.0738V23.2927L394.342 61.4359L396.285 59.0218Z" fill="#0D0D0D"/>
<path d="M382.917 64.6549L300.539 31.179V34.3978L380.974 67.069L382.917 64.6549Z" fill="#0D0D0D"/>
<path d="M300.539 45.5025L358.809 69.1609H366.807L300.539 42.2837V45.5025Z" fill="#0D0D0D"/>
<path d="M300.539 56.6074L331.502 69.1609H339.5L300.539 53.3081V56.6074Z" fill="#0D0D0D"/>
<path d="M303.967 62.4822L300.539 63.8503V67.0691L306.023 64.8964L303.967 62.4822Z" fill="#0D0D0D"/>
<path d="M314.706 69.1612H318.705L317.791 67.9541L314.706 69.1612Z" fill="#0D0D0D"/>
<path d="M580.233 9.37115L605.255 -0.768188V-3.98703L578.291 6.95702L580.233 9.37115Z" fill="#0D0D0D"/>
<path d="M594.06 14.9235L605.256 10.3367V7.11786L592.117 12.5094L594.06 14.9235Z" fill="#0D0D0D"/>
<path d="M456.314 0.803544L399.025 24.0999L401.025 26.539L458.314 3.24262L456.314 0.803544Z" fill="#0D0D0D"/>
<path d="M469.991 6.32397L398.949 35.2131L400.949 37.6521L471.991 8.76305L469.991 6.32397Z" fill="#0D0D0D"/>
<path d="M483.758 11.8002L398.963 46.282L400.962 48.7211L485.758 14.2393L483.758 11.8002Z" fill="#0D0D0D"/>
<path d="M497.363 17.406L399.012 57.4001L401.011 59.8392L499.362 19.8451L497.363 17.406Z" fill="#0D0D0D"/>
<path d="M497.384 28.5099L412.391 63.0721L414.39 65.5112L499.384 30.9489L497.384 28.5099Z" fill="#0D0D0D"/>
<path d="M497.514 39.5479L425.99 68.5979L426.447 69.1612H432.503L499.456 41.962L497.514 39.5479Z" fill="#0D0D0D"/>
<path d="M497.514 50.6526L451.927 69.161H459.81L499.457 53.0668L497.514 50.6526Z" fill="#0D0D0D"/>
<path d="M693.119 190.106H689.12V191.796H693.119V190.106Z" fill="#0D0D0D"/>
<path d="M831.823 68.4341H827.824V68.5971H831.823V68.4341Z" fill="#0D0D0D"/>
<path d="M665.812 77.7686H661.813V124.603H665.812V77.7686Z" fill="#0D0D0D"/>
<path d="M679.408 72.2163H675.409V130.236H679.408V72.2163Z" fill="#0D0D0D"/>
<path d="M693.118 68.4341H689.119V135.627H693.118V68.4341Z" fill="#0D0D0D"/>
<path d="M706.713 68.4341H702.714V141.18H706.713V68.4341Z" fill="#0D0D0D"/>
<path d="M720.425 68.4341H716.426V135.627H720.425V68.4341Z" fill="#0D0D0D"/>
<path d="M734.02 72.2163H730.021V130.236H734.02V72.2163Z" fill="#0D0D0D"/>
<path d="M747.618 77.7686H743.619V124.603H747.618V77.7686Z" fill="#0D0D0D"/>
<path d="M673.924 69.3997L671.524 68.4341H663.526L671.981 71.8139L673.924 69.3997Z" fill="#0D0D0D"/>
<path d="M660.213 74.9522L644.218 68.4341H636.22L658.157 77.3663L660.213 74.9522Z" fill="#0D0D0D"/>
<path d="M623.423 68.4341H619.424L605.257 74.228V77.4469L624.452 69.6412L623.423 68.4341Z" fill="#0D0D0D"/>
<path d="M636.22 72.6989L605.257 85.3329V88.5517L638.162 75.1935L636.22 72.6989Z" fill="#0D0D0D"/>
<path d="M649.816 78.3321L605.257 96.4381V99.6569L651.759 80.7462L649.816 78.3321Z" fill="#0D0D0D"/>
<path d="M649.816 89.3565L605.257 107.462V110.762L651.873 91.7707L649.816 89.3565Z" fill="#0D0D0D"/>
<path d="M649.816 100.462L605.257 118.568V121.786L651.873 102.876L649.816 100.462Z" fill="#0D0D0D"/>
<path d="M649.816 111.566L605.257 129.672V132.891L651.873 113.981L649.816 111.566Z" fill="#0D0D0D"/>
<path d="M737.222 68.4341H731.166L732.651 70.2849L737.222 68.4341Z" fill="#0D0D0D"/>
<path d="M746.476 75.8374L764.528 68.4341H756.644L744.419 73.3428L746.476 75.8374Z" fill="#0D0D0D"/>
<path d="M693.118 67.5504H689.119V69.2403H693.118V67.5504Z" fill="#0D0D0D"/>
<path d="M706.713 61.8367H702.714V69.2401H706.713V61.8367Z" fill="#0D0D0D"/>
<path d="M720.426 67.5504H716.427V69.2403H720.426V67.5504Z" fill="#0D0D0D"/>
<path d="M643.632 2.34159L641.633 4.78067L699.12 28.1575L701.119 25.7184L643.632 2.34159Z" fill="#0D0D0D"/>
<path d="M629.827 7.79364L627.827 10.2327L699.067 39.2023L701.067 36.7632L629.827 7.79364Z" fill="#0D0D0D"/>
<path d="M616.22 13.4249L614.221 15.864L699.016 50.3458L701.016 47.9068L616.22 13.4249Z" fill="#0D0D0D"/>
<path d="M701.002 59.0206L605.257 20.0726V23.2914L699.06 61.4347L701.002 59.0206Z" fill="#0D0D0D"/>
<path d="M687.634 64.6532L605.257 31.1773V34.3961L685.692 67.0674L687.634 64.6532Z" fill="#0D0D0D"/>
<path d="M605.257 45.501L663.527 69.1595H671.524L605.257 42.2822V45.501Z" fill="#0D0D0D"/>
<path d="M605.257 56.6063L636.22 69.1598H644.218L605.257 53.307V56.6063Z" fill="#0D0D0D"/>
<path d="M608.684 62.4808L605.257 63.8489V67.0677L610.741 64.895L608.684 62.4808Z" fill="#0D0D0D"/>
<path d="M619.425 69.1598H623.424L622.51 67.9527L619.425 69.1598Z" fill="#0D0D0D"/>
<path d="M761.032 0.802123L703.743 24.0985L705.743 26.5376L763.032 3.2412L761.032 0.802123Z" fill="#0D0D0D"/>
<path d="M774.709 6.32234L703.667 35.2115L705.666 37.6505L776.709 8.76141L774.709 6.32234Z" fill="#0D0D0D"/>
<path d="M788.476 11.7988L703.681 46.2806L705.68 48.7197L790.476 14.2378L788.476 11.7988Z" fill="#0D0D0D"/>
<path d="M802.08 17.4046L703.729 57.3987L705.729 59.8377L804.08 19.8437L802.08 17.4046Z" fill="#0D0D0D"/>
<path d="M802.102 28.5084L717.108 63.0707L719.108 65.5098L804.101 30.9475L802.102 28.5084Z" fill="#0D0D0D"/>
<path d="M802.232 39.5464L730.709 68.5964L731.166 69.1597H737.221L804.175 41.9605L802.232 39.5464Z" fill="#0D0D0D"/>
<path d="M802.23 50.6515L756.643 69.1598H764.526L804.173 53.0656L802.23 50.6515Z" fill="#0D0D0D"/>
<path d="M489.173 558.261L496.028 560.997H503.912L491.229 555.847L489.173 558.261Z" fill="#0D0D0D"/>
<path d="M388.4 559.387H384.401V561.077H388.4V559.387Z" fill="#0D0D0D"/>
<path d="M401.998 553.674H397.999V561.077H401.998V553.674Z" fill="#0D0D0D"/>
<path d="M415.708 559.387H411.709V561.077H415.708V559.387Z" fill="#0D0D0D"/>
<path d="M338.914 494.179L336.915 496.618L394.402 519.994L396.401 517.555L338.914 494.179Z" fill="#0D0D0D"/>
<path d="M325.109 499.63L323.109 502.07L394.35 531.039L396.349 528.6L325.109 499.63Z" fill="#0D0D0D"/>
<path d="M311.502 505.262L309.503 507.701L394.298 542.183L396.298 539.744L311.502 505.262Z" fill="#0D0D0D"/>
<path d="M396.285 550.858L300.539 511.91V515.129L394.342 553.272L396.285 550.858Z" fill="#0D0D0D"/>
<path d="M382.917 556.491L300.539 523.015V526.234L380.974 558.905L382.917 556.491Z" fill="#0D0D0D"/>
<path d="M300.539 537.338L358.809 560.997H366.807L300.539 534.12V537.338Z" fill="#0D0D0D"/>
<path d="M300.539 548.444L331.502 560.997H339.5L300.539 545.145V548.444Z" fill="#0D0D0D"/>
<path d="M303.967 554.318L300.539 555.686V558.905L306.023 556.732L303.967 554.318Z" fill="#0D0D0D"/>
<path d="M314.707 560.997H318.706L317.792 559.79L314.707 560.997Z" fill="#0D0D0D"/>
<path d="M527.106 437.715H523.107V437.878H527.106V437.715Z" fill="#0D0D0D"/>
<path d="M540.702 437.715H536.703V443.268H540.702V437.715Z" fill="#0D0D0D"/>
<path d="M554.298 437.715H550.299V448.74H554.298V437.715Z" fill="#0D0D0D"/>
<path d="M568.009 437.715H564.01V443.268H568.009V437.715Z" fill="#0D0D0D"/>
<path d="M581.605 437.715H577.606V437.878H581.605V437.715Z" fill="#0D0D0D"/>
<path d="M548.7 455.902L503.912 437.715H496.028L546.643 458.316L548.7 455.902Z" fill="#0D0D0D"/>
<path d="M477.449 438.009L475.449 440.448L546.689 469.418L548.689 466.979L477.449 438.009Z" fill="#0D0D0D"/>
<path d="M463.899 443.571L461.899 446.01L546.695 480.492L548.694 478.053L463.899 443.571Z" fill="#0D0D0D"/>
<path d="M450.291 449.179L448.292 451.618L546.643 491.612L548.642 489.173L450.291 449.179Z" fill="#0D0D0D"/>
<path d="M450.199 460.238L448.199 462.677L533.193 497.24L535.192 494.8L450.199 460.238Z" fill="#0D0D0D"/>
<path d="M450.247 471.353L448.247 473.792L519.586 502.802L521.586 500.363L450.247 471.353Z" fill="#0D0D0D"/>
<path d="M450.195 482.412L448.195 484.851L505.781 508.268L507.781 505.829L450.195 482.412Z" fill="#0D0D0D"/>
<path d="M456.314 492.64L399.025 515.936L401.025 518.375L458.314 495.079L456.314 492.64Z" fill="#0D0D0D"/>
<path d="M469.991 498.16L398.949 527.049L400.949 529.488L471.991 500.599L469.991 498.16Z" fill="#0D0D0D"/>
<path d="M483.758 503.636L398.963 538.118L400.962 540.557L485.758 506.075L483.758 503.636Z" fill="#0D0D0D"/>
<path d="M497.363 509.242L399.012 549.236L401.011 551.675L499.362 511.681L497.363 509.242Z" fill="#0D0D0D"/>
<path d="M497.384 520.345L412.391 554.908L414.39 557.347L499.384 522.785L497.384 520.345Z" fill="#0D0D0D"/>
<path d="M497.515 531.384L425.991 560.434L426.448 560.997H432.504L499.457 533.798L497.515 531.384Z" fill="#0D0D0D"/>
<path d="M497.514 542.488L451.927 560.997H459.81L499.457 544.903L497.514 542.488Z" fill="#0D0D0D"/>
<path d="M361.095 447.05H357.096V493.884H361.095V447.05Z" fill="#0D0D0D"/>
<path d="M374.69 441.497H370.691V499.517H374.69V441.497Z" fill="#0D0D0D"/>
<path d="M388.4 437.715H384.401V504.909H388.4V437.715Z" fill="#0D0D0D"/>
<path d="M401.998 437.715H397.999V510.461H401.998V437.715Z" fill="#0D0D0D"/>
<path d="M415.708 437.715H411.709V504.909H415.708V437.715Z" fill="#0D0D0D"/>
<path d="M429.304 441.497H425.305V499.517H429.304V441.497Z" fill="#0D0D0D"/>
<path d="M442.9 447.05H438.901V493.884H442.9V447.05Z" fill="#0D0D0D"/>
<path d="M369.206 438.681L366.806 437.715H358.809L367.263 441.095L369.206 438.681Z" fill="#0D0D0D"/>
<path d="M355.495 444.234L339.5 437.715H331.502L353.439 446.648L355.495 444.234Z" fill="#0D0D0D"/>
<path d="M318.706 437.715H314.707L300.539 443.509V446.728L319.734 438.922L318.706 437.715Z" fill="#0D0D0D"/>
<path d="M331.502 441.98L300.539 454.614V457.833L333.444 444.475L331.502 441.98Z" fill="#0D0D0D"/>
<path d="M345.098 447.613L300.539 465.719V468.938L347.041 450.027L345.098 447.613Z" fill="#0D0D0D"/>
<path d="M345.098 458.638L300.539 476.744V480.043L347.155 461.052L345.098 458.638Z" fill="#0D0D0D"/>
<path d="M345.098 469.743L300.539 487.849V491.068L347.155 472.157L345.098 469.743Z" fill="#0D0D0D"/>
<path d="M345.098 480.848L300.539 498.954V502.173L347.155 483.262L345.098 480.848Z" fill="#0D0D0D"/>
<path d="M432.504 437.715H426.448L427.934 439.566L432.504 437.715Z" fill="#0D0D0D"/>
<path d="M441.758 445.119L459.81 437.715H451.926L439.701 442.624L441.758 445.119Z" fill="#0D0D0D"/>
<path d="M513.395 386.135H509.396V432.969H513.395V386.135Z" fill="#0D0D0D"/>
<path d="M527.106 380.582H523.107V438.522H527.106V380.582Z" fill="#0D0D0D"/>
<path d="M540.702 375.191H536.703V438.522H540.702V375.191Z" fill="#0D0D0D"/>
<path d="M554.298 369.477H550.299V438.522H554.298V369.477Z" fill="#0D0D0D"/>
<path d="M568.009 375.191H564.01V438.522H568.009V375.191Z" fill="#0D0D0D"/>
<path d="M581.605 380.582H577.606V438.522H581.605V380.582Z" fill="#0D0D0D"/>
<path d="M595.316 386.135H591.317V432.969H595.316V386.135Z" fill="#0D0D0D"/>
<path d="M489.173 435.705L496.028 438.441H503.912L491.229 433.291L489.173 435.705Z" fill="#0D0D0D"/>
<path d="M388.4 436.832H384.401V438.522H388.4V436.832Z" fill="#0D0D0D"/>
<path d="M401.998 431.118H397.999V438.522H401.998V431.118Z" fill="#0D0D0D"/>
<path d="M415.708 436.832H411.709V438.522H415.708V436.832Z" fill="#0D0D0D"/>
<path d="M338.914 371.623L336.915 374.062L394.402 397.439L396.401 395L338.914 371.623Z" fill="#0D0D0D"/>
<path d="M325.109 377.075L323.109 379.514L394.349 408.484L396.349 406.045L325.109 377.075Z" fill="#0D0D0D"/>
<path d="M311.502 382.707L309.503 385.146L394.298 419.628L396.298 417.189L311.502 382.707Z" fill="#0D0D0D"/>
<path d="M396.285 428.302L300.539 389.354V392.573L394.342 430.716L396.285 428.302Z" fill="#0D0D0D"/>
<path d="M382.917 433.935L300.539 400.459V403.678L380.974 436.349L382.917 433.935Z" fill="#0D0D0D"/>
<path d="M300.539 414.783L358.809 438.441H366.807L300.539 411.564V414.783Z" fill="#0D0D0D"/>
<path d="M300.539 425.888L331.502 438.441H339.5L300.539 422.588V425.888Z" fill="#0D0D0D"/>
<path d="M303.967 431.762L300.539 433.13V436.349L306.023 434.176L303.967 431.762Z" fill="#0D0D0D"/>
<path d="M314.707 438.441H318.706L317.792 437.234L314.707 438.441Z" fill="#0D0D0D"/>
<path d="M527.106 315.16H523.107V315.323H527.106V315.16Z" fill="#0D0D0D"/>
<path d="M581.605 315.16H577.606V315.323H581.605V315.16Z" fill="#0D0D0D"/>
<path d="M548.7 333.346L503.912 315.16H496.028L546.643 335.76L548.7 333.346Z" fill="#0D0D0D"/>
<path d="M477.449 315.453L475.449 317.892L546.689 346.862L548.689 344.423L477.449 315.453Z" fill="#0D0D0D"/>
<path d="M463.899 321.016L461.899 323.455L546.695 357.936L548.694 355.497L463.899 321.016Z" fill="#0D0D0D"/>
<path d="M450.291 326.623L448.292 329.062L546.643 369.056L548.642 366.617L450.291 326.623Z" fill="#0D0D0D"/>
<path d="M450.199 337.683L448.199 340.122L533.193 374.684L535.192 372.245L450.199 337.683Z" fill="#0D0D0D"/>
<path d="M450.247 348.797L448.247 351.236L519.586 380.246L521.586 377.807L450.247 348.797Z" fill="#0D0D0D"/>
<path d="M450.195 359.856L448.195 362.295L505.781 385.712L507.781 383.273L450.195 359.856Z" fill="#0D0D0D"/>
<path d="M456.314 370.084L399.025 393.38L401.025 395.819L458.314 372.523L456.314 370.084Z" fill="#0D0D0D"/>
<path d="M469.992 375.604L398.949 404.493L400.949 406.932L471.991 378.043L469.992 375.604Z" fill="#0D0D0D"/>
<path d="M483.758 381.08L398.963 415.562L400.962 418.001L485.758 383.519L483.758 381.08Z" fill="#0D0D0D"/>
<path d="M497.363 386.686L399.012 426.68L401.011 429.119L499.362 389.125L497.363 386.686Z" fill="#0D0D0D"/>
<path d="M497.384 397.79L412.391 432.352L414.39 434.791L499.384 400.229L497.384 397.79Z" fill="#0D0D0D"/>
<path d="M497.515 408.828L425.991 437.878L426.448 438.441H432.504L499.457 411.242L497.515 408.828Z" fill="#0D0D0D"/>
<path d="M497.514 419.933L451.927 438.441H459.81L499.457 422.347L497.514 419.933Z" fill="#0D0D0D"/>
<path d="M361.095 324.494H357.096V371.328H361.095V324.494Z" fill="#0D0D0D"/>
<path d="M374.69 318.942H370.691V376.961H374.69V318.942Z" fill="#0D0D0D"/>
<path d="M388.4 315.16H384.401V382.353H388.4V315.16Z" fill="#0D0D0D"/>
<path d="M401.998 315.16H397.999V387.905H401.998V315.16Z" fill="#0D0D0D"/>
<path d="M415.708 315.16H411.709V382.353H415.708V315.16Z" fill="#0D0D0D"/>
<path d="M429.304 318.942H425.305V376.961H429.304V318.942Z" fill="#0D0D0D"/>
<path d="M442.9 324.494H438.901V371.328H442.9V324.494Z" fill="#0D0D0D"/>
<path d="M369.206 316.125L366.806 315.16H358.809L367.263 318.539L369.206 316.125Z" fill="#0D0D0D"/>
<path d="M355.495 321.678L339.5 315.16H331.502L353.439 324.092L355.495 321.678Z" fill="#0D0D0D"/>
<path d="M318.706 315.16H314.707L300.539 320.953V324.172L319.734 316.367L318.706 315.16Z" fill="#0D0D0D"/>
<path d="M331.502 319.425L300.539 332.059V335.277L333.444 321.919L331.502 319.425Z" fill="#0D0D0D"/>
<path d="M345.098 325.057L300.539 343.163V346.382L347.041 327.472L345.098 325.057Z" fill="#0D0D0D"/>
<path d="M345.098 336.082L300.539 354.188V357.487L347.155 338.496L345.098 336.082Z" fill="#0D0D0D"/>
<path d="M345.098 347.187L300.539 365.293V368.512L347.155 349.601L345.098 347.187Z" fill="#0D0D0D"/>
<path d="M345.098 358.292L300.539 376.398V379.617L347.155 360.706L345.098 358.292Z" fill="#0D0D0D"/>
<path d="M432.504 315.16H426.448L427.934 317.01L432.504 315.16Z" fill="#0D0D0D"/>
<path d="M441.758 322.563L459.81 315.16H451.926L439.701 320.068L441.758 322.563Z" fill="#0D0D0D"/>
<path d="M489.173 312.343L496.028 315.079H503.912L491.229 309.929L489.173 312.343Z" fill="#0D0D0D"/>
<path d="M388.4 313.47H384.401V315.159H388.4V313.47Z" fill="#0D0D0D"/>
<path d="M401.998 307.756H397.999V315.16H401.998V307.756Z" fill="#0D0D0D"/>
<path d="M415.708 313.47H411.709V315.159H415.708V313.47Z" fill="#0D0D0D"/>
<path d="M338.914 248.261L336.915 250.7L394.402 274.077L396.401 271.637L338.914 248.261Z" fill="#0D0D0D"/>
<path d="M325.109 253.713L323.109 256.152L394.349 285.121L396.349 282.682L325.109 253.713Z" fill="#0D0D0D"/>
<path d="M311.502 259.345L309.503 261.784L394.298 296.265L396.298 293.826L311.502 259.345Z" fill="#0D0D0D"/>
<path d="M396.285 304.94L300.539 265.992V269.21L394.342 307.354L396.285 304.94Z" fill="#0D0D0D"/>
<path d="M382.917 310.573L300.539 277.097V280.315L380.974 312.987L382.917 310.573Z" fill="#0D0D0D"/>
<path d="M300.539 291.42L358.809 315.079H366.807L300.539 288.202V291.42Z" fill="#0D0D0D"/>
<path d="M300.539 302.526L331.502 315.079H339.5L300.539 299.226V302.526Z" fill="#0D0D0D"/>
<path d="M303.967 308.4L300.539 309.768V312.987L306.023 310.814L303.967 308.4Z" fill="#0D0D0D"/>
<path d="M314.707 315.079H318.706L317.792 313.872L314.707 315.079Z" fill="#0D0D0D"/>
<path d="M527.106 191.798H523.107V191.961H527.106V191.798Z" fill="#0D0D0D"/>
<path d="M540.702 191.798H536.703V197.35H540.702V191.798Z" fill="#0D0D0D"/>
<path d="M554.298 191.798H550.299V202.822H554.298V191.798Z" fill="#0D0D0D"/>
<path d="M568.009 191.798H564.01V197.35H568.009V191.798Z" fill="#0D0D0D"/>
<path d="M581.605 191.798H577.606V191.961H581.605V191.798Z" fill="#0D0D0D"/>
<path d="M548.7 209.984L503.912 191.798H496.028L546.643 212.398L548.7 209.984Z" fill="#0D0D0D"/>
<path d="M477.45 192.091L475.45 194.53L546.69 223.5L548.69 221.061L477.45 192.091Z" fill="#0D0D0D"/>
<path d="M463.899 197.653L461.899 200.092L546.695 234.574L548.694 232.135L463.899 197.653Z" fill="#0D0D0D"/>
<path d="M450.291 203.261L448.292 205.7L546.643 245.694L548.642 243.255L450.291 203.261Z" fill="#0D0D0D"/>
<path d="M450.199 214.321L448.199 216.76L533.193 251.322L535.192 248.883L450.199 214.321Z" fill="#0D0D0D"/>
<path d="M450.247 225.435L448.247 227.874L519.586 256.884L521.586 254.445L450.247 225.435Z" fill="#0D0D0D"/>
<path d="M450.195 236.494L448.195 238.933L505.781 262.35L507.781 259.911L450.195 236.494Z" fill="#0D0D0D"/>
<path d="M456.314 246.722L399.025 270.018L401.025 272.457L458.314 249.161L456.314 246.722Z" fill="#0D0D0D"/>
<path d="M469.991 252.242L398.949 281.131L400.949 283.57L471.991 254.681L469.991 252.242Z" fill="#0D0D0D"/>
<path d="M483.758 257.718L398.963 292.2L400.962 294.639L485.758 260.157L483.758 257.718Z" fill="#0D0D0D"/>
<path d="M497.363 263.324L399.012 303.318L401.011 305.757L499.362 265.763L497.363 263.324Z" fill="#0D0D0D"/>
<path d="M497.384 274.427L412.391 308.99L414.39 311.429L499.384 276.867L497.384 274.427Z" fill="#0D0D0D"/>
<path d="M497.515 285.466L425.991 314.516L426.448 315.079H432.504L499.457 287.88L497.515 285.466Z" fill="#0D0D0D"/>
<path d="M497.514 296.571L451.927 315.079H459.81L499.457 298.985L497.514 296.571Z" fill="#0D0D0D"/>
<path d="M361.095 201.132H357.096V247.966H361.095V201.132Z" fill="#0D0D0D"/>
<path d="M374.69 195.58H370.691V253.599H374.69V195.58Z" fill="#0D0D0D"/>
<path d="M388.4 191.798H384.401V258.991H388.4V191.798Z" fill="#0D0D0D"/>
<path d="M401.998 191.798H397.999V264.543H401.998V191.798Z" fill="#0D0D0D"/>
<path d="M415.708 191.798H411.709V258.991H415.708V191.798Z" fill="#0D0D0D"/>
<path d="M429.304 195.58H425.305V253.599H429.304V195.58Z" fill="#0D0D0D"/>
<path d="M442.9 201.132H438.901V247.966H442.9V201.132Z" fill="#0D0D0D"/>
<path d="M369.206 192.763L366.806 191.798H358.809L367.263 195.177L369.206 192.763Z" fill="#0D0D0D"/>
<path d="M355.495 198.316L339.5 191.798H331.502L353.439 200.73L355.495 198.316Z" fill="#0D0D0D"/>
<path d="M318.706 191.798H314.707L300.539 197.592V200.81L319.734 193.005L318.706 191.798Z" fill="#0D0D0D"/>
<path d="M331.502 196.062L300.539 208.696V211.915L333.444 198.557L331.502 196.062Z" fill="#0D0D0D"/>
<path d="M345.098 201.695L300.539 219.801V223.02L347.041 204.11L345.098 201.695Z" fill="#0D0D0D"/>
<path d="M345.098 212.72L300.539 230.826V234.125L347.155 215.134L345.098 212.72Z" fill="#0D0D0D"/>
<path d="M345.098 223.825L300.539 241.931V245.15L347.155 226.239L345.098 223.825Z" fill="#0D0D0D"/>
<path d="M345.098 234.93L300.539 253.036V256.255L347.155 237.344L345.098 234.93Z" fill="#0D0D0D"/>
<path d="M432.504 191.798H426.448L427.934 193.648L432.504 191.798Z" fill="#0D0D0D"/>
<path d="M441.758 199.201L459.81 191.798H451.926L439.701 196.706L441.758 199.201Z" fill="#0D0D0D"/>
</g>
</svg>
