<svg width="56" height="56" viewBox="0 0 56 56" fill="none" xmlns="http://www.w3.org/2000/svg">
<circle opacity="0.15" cx="28" cy="28" r="28" fill="#FFC509"/>
<g clip-path="url(#clip0)">
<path fill-rule="evenodd" clip-rule="evenodd" d="M34.0392 34.4753C36.4611 33.8578 35.8111 31.3343 35.68 28.6364C35.6603 28.2305 37.0296 28.0349 36.9995 27.6174C36.8838 26.0104 35.6832 24.595 35.0799 22.6565C33.9808 19.1248 32.4736 16 28.2185 16C25.0344 16 20 17.3046 20 23.5027C20 24.7703 21.5921 30.9947 21.4327 34.0436L21.4325 40C21.4325 40 22.794 40 30.8943 40C30.8943 36.5951 30.5811 34.7535 30.8943 34.4753C31.3641 34.0581 33.4597 34.6231 34.0392 34.4753Z" fill="#FCC207"/>
</g>
<defs>
<clipPath id="clip0">
<rect width="24" height="24" fill="white" transform="translate(16 16)"/>
</clipPath>
</defs>
</svg>
