<svg width="1439" height="1100" viewBox="0 0 1439 1100" fill="none" xmlns="http://www.w3.org/2000/svg">
    <g opacity="0.06">
        <path d="M208.68 714.289H204.681V779.932H208.68V714.289Z" fill="#0D0D0D"/>
        <path d="M222.392 706.507H218.393V787.715H222.392V706.507Z" fill="#0D0D0D"/>
        <path d="M235.987 698.95H231.988V787.715H235.987V698.95Z" fill="#0D0D0D"/>
        <path d="M249.583 690.942H245.584V787.714H249.583V690.942Z" fill="#0D0D0D"/>
        <path d="M263.294 698.95H259.295V787.715H263.294V698.95Z" fill="#0D0D0D"/>
        <path d="M276.891 706.507H272.892V787.715H276.891V706.507Z" fill="#0D0D0D"/>
        <path d="M290.6 714.289H286.602V779.932H290.6V714.289Z" fill="#0D0D0D"/>
        <path d="M83.6854 785.346H79.6865V787.714H83.6854V785.346Z" fill="#0D0D0D"/>
        <path d="M110.993 785.346H106.994V787.714H110.993V785.346Z" fill="#0D0D0D"/>
        <path d="M248.67 641.428L295.4 614.809H287.402L246.613 638.044L248.67 641.428Z" fill="#0D0D0D"/>
        <path d="M248.67 656.992L300.542 627.441V622.93L246.613 653.608L248.67 656.992Z" fill="#0D0D0D"/>
        <path d="M248.67 672.557L300.542 643.006V638.495L246.613 669.174L248.67 672.557Z" fill="#0D0D0D"/>
        <path d="M248.67 688.122L300.542 658.571V654.06L246.613 684.738L248.67 688.122Z" fill="#0D0D0D"/>
        <path d="M262.037 696.017L300.541 674.136V669.512L260.095 692.633L262.037 696.017Z" fill="#0D0D0D"/>
        <path d="M275.518 703.799L300.54 689.588V685.076L273.576 700.416L275.518 703.799Z" fill="#0D0D0D"/>
        <path d="M289.344 711.582L300.541 705.153V700.641L287.401 708.198L289.344 711.582Z" fill="#0D0D0D"/>
        <path d="M222.392 614.809H218.393V615.037H222.392V614.809Z" fill="#0D0D0D"/>
        <path d="M235.986 614.809H231.987V622.592H235.986V614.809Z" fill="#0D0D0D"/>
        <path d="M249.583 614.809H245.584V630.261H249.583V614.809Z" fill="#0D0D0D"/>
        <path d="M263.294 614.809H259.295V622.592H263.294V614.809Z" fill="#0D0D0D"/>
        <path d="M276.891 614.809H272.892V615.037H276.891V614.809Z" fill="#0D0D0D"/>
        <path d="M243.985 640.3L199.197 614.809H191.313L241.928 643.683L243.985 640.3Z" fill="#0D0D0D"/>
        <path d="M172.734 615.221L170.734 618.64L241.974 659.244L243.974 655.825L172.734 615.221Z" fill="#0D0D0D"/>
        <path d="M159.184 623.017L157.185 626.435L241.98 674.765L243.98 671.347L159.184 623.017Z" fill="#0D0D0D"/>
        <path d="M145.578 630.876L143.578 634.295L241.929 690.351L243.929 686.933L145.578 630.876Z" fill="#0D0D0D"/>
        <path d="M145.485 646.378L143.485 649.796L228.479 698.239L230.478 694.82L145.485 646.378Z" fill="#0D0D0D"/>
        <path d="M145.532 661.955L143.532 665.374L214.871 706.035L216.871 702.616L145.532 661.955Z" fill="#0D0D0D"/>
        <path d="M145.48 677.456L143.48 680.875L201.066 713.696L203.066 710.278L145.48 677.456Z" fill="#0D0D0D"/>
        <path d="M56.3788 627.893H52.3799V693.536H56.3788V627.893Z" fill="#0D0D0D"/>
        <path d="M69.9745 620.11H65.9756V701.431H69.9745V620.11Z" fill="#0D0D0D"/>
        <path d="M83.6854 614.809H79.6865V708.988H83.6854V614.809Z" fill="#0D0D0D"/>
        <path d="M97.2821 614.809H93.2832V716.77H97.2821V614.809Z" fill="#0D0D0D"/>
        <path d="M110.993 614.809H106.994V708.988H110.993V614.809Z" fill="#0D0D0D"/>
        <path d="M124.588 620.11H120.589V701.431H124.588V620.11Z" fill="#0D0D0D"/>
        <path d="M138.185 627.893H134.187V693.536H138.185V627.893Z" fill="#0D0D0D"/>
        <path d="M64.4909 616.163L62.0916 614.809H54.0938L62.5486 619.546L64.4909 616.163Z" fill="#0D0D0D"/>
        <path d="M50.7796 623.945L34.784 614.809H26.7861L48.723 627.329L50.7796 623.945Z" fill="#0D0D0D"/>
        <path d="M13.9897 614.809H9.99082L-4.17676 622.93V627.441L15.018 616.501L13.9897 614.809Z" fill="#0D0D0D"/>
        <path d="M26.7863 620.787L-4.17676 638.495V643.006L28.7286 624.283L26.7863 620.787Z" fill="#0D0D0D"/>
        <path d="M40.3826 628.682L-4.17676 654.06V658.571L42.3249 632.066L40.3826 628.682Z" fill="#0D0D0D"/>
        <path d="M40.3826 644.134L-4.17676 669.512V674.136L42.4392 647.518L40.3826 644.134Z" fill="#0D0D0D"/>
        <path d="M40.3826 659.699L-4.17676 685.077V689.588L42.4392 663.083L40.3826 659.699Z" fill="#0D0D0D"/>
        <path d="M40.3826 675.264L-4.17676 700.642V705.153L42.4392 678.648L40.3826 675.264Z" fill="#0D0D0D"/>
        <path d="M127.788 614.809H121.732L123.218 617.403L127.788 614.809Z" fill="#0D0D0D"/>
        <path d="M137.042 625.186L155.094 614.809H147.211L134.985 621.689L137.042 625.186Z" fill="#0D0D0D"/>
        <path d="M297.914 545.559L295.972 548.942L300.542 551.536V547.025L297.914 545.559Z" fill="#0D0D0D"/>
        <path d="M295.856 564.395L300.541 567.101V562.59L297.799 561.011L295.856 564.395Z" fill="#0D0D0D"/>
        <path d="M295.856 579.959L300.541 582.666V578.155L297.799 576.576L295.856 579.959Z" fill="#0D0D0D"/>
        <path d="M295.856 595.524L300.541 598.231V593.607L297.799 592.141L295.856 595.524Z" fill="#0D0D0D"/>
        <path d="M295.399 615.826L300.541 612.894V608.383L287.401 615.826H295.399Z" fill="#0D0D0D"/>
        <path d="M208.68 542.513H204.681V608.156H208.68V542.513Z" fill="#0D0D0D"/>
        <path d="M222.392 534.731H218.393V615.939H222.392V534.731Z" fill="#0D0D0D"/>
        <path d="M235.987 527.174H231.988V615.939H235.987V527.174Z" fill="#0D0D0D"/>
        <path d="M249.583 519.166H245.584V615.939H249.583V519.166Z" fill="#0D0D0D"/>
        <path d="M263.294 527.174H259.295V615.939H263.294V527.174Z" fill="#0D0D0D"/>
        <path d="M276.891 534.731H272.892V615.939H276.891V534.731Z" fill="#0D0D0D"/>
        <path d="M290.6 542.513H286.602V608.156H290.6V542.513Z" fill="#0D0D0D"/>
        <path d="M184.459 611.991L191.314 615.826H199.198L186.516 608.608L184.459 611.991Z" fill="#0D0D0D"/>
        <path d="M83.6854 613.57H79.6865V615.939H83.6854V613.57Z" fill="#0D0D0D"/>
        <path d="M97.2821 605.562H93.2832V615.939H97.2821V605.562Z" fill="#0D0D0D"/>
        <path d="M110.993 613.57H106.994V615.939H110.993V613.57Z" fill="#0D0D0D"/>
        <path d="M34.1997 522.173L32.2002 525.592L89.687 558.357L91.6865 554.938L34.1997 522.173Z" fill="#0D0D0D"/>
        <path d="M20.394 529.815L18.3945 533.233L89.6346 573.837L91.6341 570.419L20.394 529.815Z" fill="#0D0D0D"/>
        <path d="M6.78754 537.708L4.78809 541.127L89.5836 589.457L91.583 586.038L6.78754 537.708Z" fill="#0D0D0D"/>
        <path d="M91.5687 601.615L-4.17676 547.025V551.536L89.6264 604.999L91.5687 601.615Z" fill="#0D0D0D"/>
        <path d="M78.2009 609.51L-4.17676 562.59V567.101L76.2586 612.894L78.2009 609.51Z" fill="#0D0D0D"/>
        <path d="M-4.17676 582.666L54.0932 615.826H62.091L-4.17676 578.155V582.666Z" fill="#0D0D0D"/>
        <path d="M-4.17676 598.231L26.7863 615.826H34.7841L-4.17676 593.607V598.231Z" fill="#0D0D0D"/>
        <path d="M-0.749115 606.464L-4.17676 608.382V612.894L1.30747 609.848L-0.749115 606.464Z" fill="#0D0D0D"/>
        <path d="M9.99121 615.826H13.9901L13.0761 614.134L9.99121 615.826Z" fill="#0D0D0D"/>
        <path d="M248.67 469.652L295.4 443.034H287.402L246.613 466.268L248.67 469.652Z" fill="#0D0D0D"/>
        <path d="M248.67 485.217L300.542 455.666V451.154L246.613 481.833L248.67 485.217Z" fill="#0D0D0D"/>
        <path d="M248.67 500.782L300.542 471.231V466.719L246.613 497.398L248.67 500.782Z" fill="#0D0D0D"/>
        <path d="M248.67 516.346L300.542 486.796V482.284L246.613 512.963L248.67 516.346Z" fill="#0D0D0D"/>
        <path d="M262.037 524.241L300.541 502.36V497.736L260.095 520.858L262.037 524.241Z" fill="#0D0D0D"/>
        <path d="M275.518 532.024L300.54 517.813V513.301L273.576 528.64L275.518 532.024Z" fill="#0D0D0D"/>
        <path d="M289.344 539.806L300.541 533.377V528.866L287.401 536.423L289.344 539.806Z" fill="#0D0D0D"/>
        <path d="M222.392 443.034H218.393V443.261H222.392V443.034Z" fill="#0D0D0D"/>
        <path d="M235.986 443.034H231.987V450.816H235.986V443.034Z" fill="#0D0D0D"/>
        <path d="M249.583 443.034H245.584V458.486H249.583V443.034Z" fill="#0D0D0D"/>
        <path d="M263.294 443.034H259.295V450.816H263.294V443.034Z" fill="#0D0D0D"/>
        <path d="M276.891 443.034H272.892V443.261H276.891V443.034Z" fill="#0D0D0D"/>
        <path d="M243.985 468.524L199.197 443.034H191.313L241.928 471.908L243.985 468.524Z" fill="#0D0D0D"/>
        <path d="M172.734 443.445L170.734 446.864L241.974 487.468L243.974 484.049L172.734 443.445Z" fill="#0D0D0D"/>
        <path d="M159.184 451.241L157.185 454.66L241.98 502.99L243.98 499.571L159.184 451.241Z" fill="#0D0D0D"/>
        <path d="M145.578 459.101L143.578 462.519L241.929 518.576L243.929 515.157L145.578 459.101Z" fill="#0D0D0D"/>
        <path d="M145.485 474.602L143.485 478.021L228.479 526.464L230.478 523.045L145.485 474.602Z" fill="#0D0D0D"/>
        <path d="M145.532 490.18L143.532 493.599L214.871 534.259L216.871 530.841L145.532 490.18Z" fill="#0D0D0D"/>
        <path d="M145.48 505.681L143.48 509.1L201.066 541.921L203.066 538.503L145.48 505.681Z" fill="#0D0D0D"/>
        <path d="M151.599 520.016L94.3105 552.668L96.31 556.087L153.599 523.434L151.599 520.016Z" fill="#0D0D0D"/>
        <path d="M165.276 527.753L94.2334 568.244L96.2329 571.663L167.275 531.172L165.276 527.753Z" fill="#0D0D0D"/>
        <path d="M179.045 535.428L94.249 583.758L96.2485 587.177L181.044 538.847L179.045 535.428Z" fill="#0D0D0D"/>
        <path d="M192.647 543.286L94.2959 599.342L96.2954 602.761L194.646 546.705L192.647 543.286Z" fill="#0D0D0D"/>
        <path d="M192.669 558.849L107.676 607.292L109.675 610.71L194.669 562.267L192.669 558.849Z" fill="#0D0D0D"/>
        <path d="M192.8 574.32L121.276 615.036L121.733 615.826H127.789L194.742 577.704L192.8 574.32Z" fill="#0D0D0D"/>
        <path d="M192.8 589.885L147.212 615.826H155.095L194.742 593.269L192.8 589.885Z" fill="#0D0D0D"/>
        <path d="M56.3788 456.117H52.3799V521.76H56.3788V456.117Z" fill="#0D0D0D"/>
        <path d="M69.9745 448.335H65.9756V529.656H69.9745V448.335Z" fill="#0D0D0D"/>
        <path d="M83.6854 443.034H79.6865V537.212H83.6854V443.034Z" fill="#0D0D0D"/>
        <path d="M97.2821 443.034H93.2832V544.995H97.2821V443.034Z" fill="#0D0D0D"/>
        <path d="M110.993 443.034H106.994V537.212H110.993V443.034Z" fill="#0D0D0D"/>
        <path d="M124.588 448.335H120.589V529.656H124.588V448.335Z" fill="#0D0D0D"/>
        <path d="M138.185 456.117H134.187V521.76H138.185V456.117Z" fill="#0D0D0D"/>
        <path d="M64.4909 444.387L62.0916 443.034H54.0938L62.5486 447.771L64.4909 444.387Z" fill="#0D0D0D"/>
        <path d="M50.7796 452.17L34.784 443.034H26.7861L48.723 455.553L50.7796 452.17Z" fill="#0D0D0D"/>
        <path d="M13.9897 443.034H9.99082L-4.17676 451.154V455.666L15.018 444.726L13.9897 443.034Z" fill="#0D0D0D"/>
        <path d="M26.7863 449.011L-4.17676 466.719V471.23L28.7286 452.507L26.7863 449.011Z" fill="#0D0D0D"/>
        <path d="M40.3826 456.907L-4.17676 482.284V486.796L42.3249 460.29L40.3826 456.907Z" fill="#0D0D0D"/>
        <path d="M40.3826 472.359L-4.17676 497.736V502.36L42.4392 475.742L40.3826 472.359Z" fill="#0D0D0D"/>
        <path d="M40.3826 487.924L-4.17676 513.301V517.813L42.4392 491.307L40.3826 487.924Z" fill="#0D0D0D"/>
        <path d="M40.3826 503.489L-4.17676 528.866V533.378L42.4392 506.872L40.3826 503.489Z" fill="#0D0D0D"/>
        <path d="M127.788 443.034H121.732L123.218 445.628L127.788 443.034Z" fill="#0D0D0D"/>
        <path d="M137.042 453.41L155.094 443.034H147.211L134.985 449.914L137.042 453.41Z" fill="#0D0D0D"/>
        <path d="M297.914 372.653L295.972 376.037L300.542 378.631V374.12L297.914 372.653Z" fill="#0D0D0D"/>
        <path d="M295.856 391.489L300.541 394.196V389.684L297.799 388.105L295.856 391.489Z" fill="#0D0D0D"/>
        <path d="M295.856 407.054L300.541 409.761V405.249L297.799 403.67L295.856 407.054Z" fill="#0D0D0D"/>
        <path d="M295.856 422.619L300.541 425.326V420.702L297.799 419.235L295.856 422.619Z" fill="#0D0D0D"/>
        <path d="M295.399 442.921L300.541 439.988V435.477L287.401 442.921H295.399Z" fill="#0D0D0D"/>
        <path d="M208.68 369.608H204.681V435.251H208.68V369.608Z" fill="#0D0D0D"/>
        <path d="M222.391 361.826H218.393V443.034H222.391V361.826Z" fill="#0D0D0D"/>
        <path d="M235.987 354.269H231.988V443.033H235.987V354.269Z" fill="#0D0D0D"/>
        <path d="M249.583 346.26H245.584V443.033H249.583V346.26Z" fill="#0D0D0D"/>
        <path d="M263.294 354.269H259.295V443.033H263.294V354.269Z" fill="#0D0D0D"/>
        <path d="M276.891 361.826H272.892V443.034H276.891V361.826Z" fill="#0D0D0D"/>
        <path d="M290.6 369.608H286.602V435.251H290.6V369.608Z" fill="#0D0D0D"/>
        <path d="M184.459 439.086L191.314 442.921H199.198L186.516 435.702L184.459 439.086Z" fill="#0D0D0D"/>
        <path d="M83.6854 440.665H79.6865V443.034H83.6854V440.665Z" fill="#0D0D0D"/>
        <path d="M97.2821 432.657H93.2832V443.034H97.2821V432.657Z" fill="#0D0D0D"/>
        <path d="M110.993 440.665H106.994V443.034H110.993V440.665Z" fill="#0D0D0D"/>
        <path d="M34.1997 349.268L32.2002 352.686L89.687 385.451L91.6865 382.033L34.1997 349.268Z" fill="#0D0D0D"/>
        <path d="M20.394 356.909L18.3945 360.328L89.6347 400.932L91.6341 397.513L20.394 356.909Z" fill="#0D0D0D"/>
        <path d="M6.78754 364.803L4.78809 368.221L89.5836 416.552L91.5831 413.133L6.78754 364.803Z" fill="#0D0D0D"/>
        <path d="M91.5687 428.709L-4.17676 374.12V378.631L89.6264 432.093L91.5687 428.709Z" fill="#0D0D0D"/>
        <path d="M78.2009 436.604L-4.17676 389.684V394.196L76.2586 439.988L78.2009 436.604Z" fill="#0D0D0D"/>
        <path d="M-4.17676 409.761L54.0932 442.921H62.091L-4.17676 405.249V409.761Z" fill="#0D0D0D"/>
        <path d="M-4.17676 425.326L26.7863 442.921H34.7841L-4.17676 420.701V425.326Z" fill="#0D0D0D"/>
        <path d="M-0.749115 433.559L-4.17676 435.477V439.988L1.30747 436.943L-0.749115 433.559Z" fill="#0D0D0D"/>
        <path d="M9.99121 442.921H13.9901L13.0761 441.229L9.99121 442.921Z" fill="#0D0D0D"/>
        <path d="M248.67 296.746L295.4 270.128H287.402L246.613 293.362L248.67 296.746Z" fill="#0D0D0D"/>
        <path d="M248.67 312.311L300.542 282.761V278.249L246.613 308.928L248.67 312.311Z" fill="#0D0D0D"/>
        <path d="M248.67 327.876L300.542 298.325V293.814L246.613 324.492L248.67 327.876Z" fill="#0D0D0D"/>
        <path d="M248.67 343.441L300.542 313.89V309.379L246.613 340.057L248.67 343.441Z" fill="#0D0D0D"/>
        <path d="M262.037 351.336L300.541 329.455V324.831L260.095 347.953L262.037 351.336Z" fill="#0D0D0D"/>
        <path d="M275.518 359.118L300.54 344.907V340.395L273.576 355.735L275.518 359.118Z" fill="#0D0D0D"/>
        <path d="M289.344 366.901L300.541 360.472V355.96L287.401 363.517L289.344 366.901Z" fill="#0D0D0D"/>
        <path d="M222.391 270.128H218.393V270.356H222.391V270.128Z" fill="#0D0D0D"/>
        <path d="M235.986 270.128H231.987V277.91H235.986V270.128Z" fill="#0D0D0D"/>
        <path d="M249.583 270.128H245.584V285.58H249.583V270.128Z" fill="#0D0D0D"/>
        <path d="M263.294 270.128H259.295V277.91H263.294V270.128Z" fill="#0D0D0D"/>
        <path d="M276.891 270.128H272.892V270.356H276.891V270.128Z" fill="#0D0D0D"/>
        <path d="M243.985 295.618L199.197 270.128H191.313L241.928 299.002L243.985 295.618Z" fill="#0D0D0D"/>
        <path d="M172.734 270.54L170.734 273.959L241.975 314.563L243.974 311.144L172.734 270.54Z" fill="#0D0D0D"/>
        <path d="M159.184 278.336L157.185 281.754L241.98 330.084L243.98 326.666L159.184 278.336Z" fill="#0D0D0D"/>
        <path d="M145.578 286.195L143.578 289.614L241.929 345.67L243.929 342.251L145.578 286.195Z" fill="#0D0D0D"/>
        <path d="M145.485 301.697L143.485 305.115L228.479 353.558L230.478 350.14L145.485 301.697Z" fill="#0D0D0D"/>
        <path d="M145.532 317.275L143.532 320.694L214.871 361.354L216.871 357.936L145.532 317.275Z" fill="#0D0D0D"/>
        <path d="M145.48 332.775L143.48 336.194L201.066 369.016L203.066 365.597L145.48 332.775Z" fill="#0D0D0D"/>
        <path d="M151.599 347.111L94.3105 379.763L96.31 383.182L153.599 350.529L151.599 347.111Z" fill="#0D0D0D"/>
        <path d="M165.276 354.847L94.2334 395.339L96.2329 398.757L167.275 358.266L165.276 354.847Z" fill="#0D0D0D"/>
        <path d="M179.045 362.523L94.249 410.853L96.2485 414.271L181.044 365.941L179.045 362.523Z" fill="#0D0D0D"/>
        <path d="M192.647 370.38L94.2959 426.437L96.2954 429.855L194.646 373.799L192.647 370.38Z" fill="#0D0D0D"/>
        <path d="M192.669 385.944L107.676 434.386L109.675 437.805L194.669 389.362L192.669 385.944Z" fill="#0D0D0D"/>
        <path d="M192.8 401.414L121.276 442.131L121.733 442.921H127.789L194.742 404.798L192.8 401.414Z" fill="#0D0D0D"/>
        <path d="M192.8 416.979L147.212 442.921H155.095L194.742 420.363L192.8 416.979Z" fill="#0D0D0D"/>
        <path d="M56.3788 283.212H52.3799V348.855H56.3788V283.212Z" fill="#0D0D0D"/>
        <path d="M69.9745 275.429H65.9756V356.75H69.9745V275.429Z" fill="#0D0D0D"/>
        <path d="M83.6854 270.128H79.6865V364.307H83.6854V270.128Z" fill="#0D0D0D"/>
        <path d="M97.2821 270.128H93.2832V372.089H97.2821V270.128Z" fill="#0D0D0D"/>
        <path d="M110.993 270.128H106.994V364.307H110.993V270.128Z" fill="#0D0D0D"/>
        <path d="M124.588 275.429H120.589V356.75H124.588V275.429Z" fill="#0D0D0D"/>
        <path d="M138.185 283.212H134.187V348.855H138.185V283.212Z" fill="#0D0D0D"/>
        <path d="M64.4909 271.482L62.0916 270.128H54.0938L62.5486 274.865L64.4909 271.482Z" fill="#0D0D0D"/>
        <path d="M50.7796 279.264L34.784 270.128H26.7861L48.723 282.648L50.7796 279.264Z" fill="#0D0D0D"/>
        <path d="M13.9897 270.128H9.99082L-4.17676 278.249V282.761L15.018 271.82L13.9897 270.128Z" fill="#0D0D0D"/>
        <path d="M26.7863 276.106L-4.17676 293.813V298.325L28.7286 279.602L26.7863 276.106Z" fill="#0D0D0D"/>
        <path d="M40.3826 284.001L-4.17676 309.379V313.89L42.3249 287.385L40.3826 284.001Z" fill="#0D0D0D"/>
        <path d="M40.3826 299.453L-4.17676 324.831V329.455L42.4392 302.837L40.3826 299.453Z" fill="#0D0D0D"/>
        <path d="M40.3826 315.018L-4.17676 340.396V344.907L42.4392 318.402L40.3826 315.018Z" fill="#0D0D0D"/>
        <path d="M40.3826 330.583L-4.17676 355.961V360.472L42.4392 333.967L40.3826 330.583Z" fill="#0D0D0D"/>
        <path d="M127.788 270.128H121.732L123.218 272.722L127.788 270.128Z" fill="#0D0D0D"/>
        <path d="M137.042 280.505L155.094 270.128H147.211L134.985 277.008L137.042 280.505Z" fill="#0D0D0D"/>
        <path d="M297.914 199.748L295.972 203.132L300.542 205.726V201.214L297.914 199.748Z" fill="#0D0D0D"/>
        <path d="M295.856 218.584L300.541 221.291V216.779L297.799 215.2L295.856 218.584Z" fill="#0D0D0D"/>
        <path d="M295.856 234.148L300.541 236.855V232.344L297.799 230.765L295.856 234.148Z" fill="#0D0D0D"/>
        <path d="M295.856 249.713L300.541 252.42V247.796L297.799 246.33L295.856 249.713Z" fill="#0D0D0D"/>
        <path d="M295.399 270.016L300.541 267.083V262.572L287.401 270.016H295.399Z" fill="#0D0D0D"/>
        <path d="M208.68 196.703H204.681V262.346H208.68V196.703Z" fill="#0D0D0D"/>
        <path d="M222.392 188.92H218.393V270.128H222.392V188.92Z" fill="#0D0D0D"/>
        <path d="M235.987 181.363H231.988V270.128H235.987V181.363Z" fill="#0D0D0D"/>
        <path d="M249.583 173.355H245.584V270.128H249.583V173.355Z" fill="#0D0D0D"/>
        <path d="M263.294 181.363H259.295V270.128H263.294V181.363Z" fill="#0D0D0D"/>
        <path d="M276.891 188.92H272.892V270.128H276.891V188.92Z" fill="#0D0D0D"/>
        <path d="M290.6 196.703H286.602V262.346H290.6V196.703Z" fill="#0D0D0D"/>
        <path d="M184.459 266.18L191.314 270.015H199.198L186.516 262.797L184.459 266.18Z" fill="#0D0D0D"/>
        <path d="M83.6854 267.759H79.6865V270.128H83.6854V267.759Z" fill="#0D0D0D"/>
        <path d="M97.2821 259.752H93.2832V270.128H97.2821V259.752Z" fill="#0D0D0D"/>
        <path d="M110.993 267.759H106.994V270.128H110.993V267.759Z" fill="#0D0D0D"/>
        <path d="M34.1997 176.362L32.2002 179.781L89.687 212.546L91.6865 209.128L34.1997 176.362Z" fill="#0D0D0D"/>
        <path d="M20.394 184.004L18.3945 187.422L89.6346 228.026L91.6341 224.608L20.394 184.004Z" fill="#0D0D0D"/>
        <path d="M6.78754 191.898L4.78809 195.316L89.5836 243.646L91.5831 240.228L6.78754 191.898Z" fill="#0D0D0D"/>
        <path d="M91.5687 255.804L-4.17676 201.214V205.725L89.6264 259.187L91.5687 255.804Z" fill="#0D0D0D"/>
        <path d="M78.2009 263.699L-4.17676 216.779V221.29L76.2586 267.083L78.2009 263.699Z" fill="#0D0D0D"/>
        <path d="M-4.17676 236.855L54.0932 270.015H62.091L-4.17676 232.344V236.855Z" fill="#0D0D0D"/>
        <path d="M-4.17676 252.42L26.7863 270.016H34.7841L-4.17676 247.796V252.42Z" fill="#0D0D0D"/>
        <path d="M-0.749115 260.654L-4.17676 262.572V267.083L1.30747 264.038L-0.749115 260.654Z" fill="#0D0D0D"/>
        <path d="M9.99121 270.015H13.9901L13.0761 268.323L9.99121 270.015Z" fill="#0D0D0D"/>
        <path d="M248.67 123.841L295.4 97.2228H287.402L246.613 120.457L248.67 123.841Z" fill="#0D0D0D"/>
        <path d="M248.67 139.406L300.542 109.855V105.344L246.613 136.022L248.67 139.406Z" fill="#0D0D0D"/>
        <path d="M248.67 154.971L300.542 125.42V120.908L246.613 151.587L248.67 154.971Z" fill="#0D0D0D"/>
        <path d="M248.67 170.536L300.542 140.985V136.474L246.613 167.152L248.67 170.536Z" fill="#0D0D0D"/>
        <path d="M262.037 178.431L300.541 156.55V151.926L260.095 175.047L262.037 178.431Z" fill="#0D0D0D"/>
        <path d="M275.518 186.213L300.54 172.002V167.49L273.576 182.83L275.518 186.213Z" fill="#0D0D0D"/>
        <path d="M289.344 193.996L300.541 187.567V183.055L287.401 190.612L289.344 193.996Z" fill="#0D0D0D"/>
        <path d="M222.392 97.2228H218.393V97.4505H222.392V97.2228Z" fill="#0D0D0D"/>
        <path d="M235.986 97.2228H231.987V105.005H235.986V97.2228Z" fill="#0D0D0D"/>
        <path d="M249.583 97.2228H245.584V112.675H249.583V97.2228Z" fill="#0D0D0D"/>
        <path d="M263.294 97.2228H259.295V105.005H263.294V97.2228Z" fill="#0D0D0D"/>
        <path d="M276.891 97.2228H272.892V97.4505H276.891V97.2228Z" fill="#0D0D0D"/>
        <path d="M243.985 122.713L199.197 97.2228H191.313L241.928 126.097L243.985 122.713Z" fill="#0D0D0D"/>
        <path d="M172.734 97.6345L170.734 101.053L241.974 141.657L243.974 138.239L172.734 97.6345Z" fill="#0D0D0D"/>
        <path d="M159.184 105.431L157.185 108.849L241.98 157.179L243.98 153.761L159.184 105.431Z" fill="#0D0D0D"/>
        <path d="M145.578 113.29L143.578 116.708L241.929 172.764L243.929 169.346L145.578 113.29Z" fill="#0D0D0D"/>
        <path d="M145.485 128.792L143.485 132.21L228.479 180.653L230.478 177.234L145.485 128.792Z" fill="#0D0D0D"/>
        <path d="M145.532 144.37L143.532 147.788L214.871 188.449L216.871 185.03L145.532 144.37Z" fill="#0D0D0D"/>
        <path d="M145.48 159.87L143.48 163.289L201.066 196.11L203.066 192.692L145.48 159.87Z" fill="#0D0D0D"/>
        <path d="M151.599 174.205L94.3105 206.857L96.31 210.276L153.599 177.624L151.599 174.205Z" fill="#0D0D0D"/>
        <path d="M165.276 181.942L94.2334 222.433L96.2329 225.852L167.275 185.361L165.276 181.942Z" fill="#0D0D0D"/>
        <path d="M179.045 189.617L94.249 237.947L96.2485 241.366L181.044 193.036L179.045 189.617Z" fill="#0D0D0D"/>
        <path d="M192.647 197.475L94.2959 253.531L96.2954 256.95L194.646 200.894L192.647 197.475Z" fill="#0D0D0D"/>
        <path d="M192.669 213.038L107.676 261.481L109.675 264.899L194.669 216.456L192.669 213.038Z" fill="#0D0D0D"/>
        <path d="M192.8 228.509L121.276 269.226L121.733 270.015H127.789L194.742 231.893L192.8 228.509Z" fill="#0D0D0D"/>
        <path d="M192.8 244.074L147.212 270.015H155.095L194.742 247.457L192.8 244.074Z" fill="#0D0D0D"/>
        <path d="M56.3788 110.307H52.3799V175.95H56.3788V110.307Z" fill="#0D0D0D"/>
        <path d="M69.9745 102.524H65.9756V183.845H69.9745V102.524Z" fill="#0D0D0D"/>
        <path d="M83.6854 97.2228H79.6865V191.402H83.6854V97.2228Z" fill="#0D0D0D"/>
        <path d="M97.2821 97.2229H93.2832V199.184H97.2821V97.2229Z" fill="#0D0D0D"/>
        <path d="M110.993 97.2228H106.994V191.402H110.993V97.2228Z" fill="#0D0D0D"/>
        <path d="M124.588 102.524H120.589V183.845H124.588V102.524Z" fill="#0D0D0D"/>
        <path d="M138.185 110.307H134.187V175.95H138.185V110.307Z" fill="#0D0D0D"/>
        <path d="M64.4909 98.5763L62.0916 97.2228H54.0938L62.5486 101.96L64.4909 98.5763Z" fill="#0D0D0D"/>
        <path d="M50.7796 106.359L34.784 97.2229H26.7861L48.723 109.742L50.7796 106.359Z" fill="#0D0D0D"/>
        <path d="M13.9897 97.2227H9.99082L-4.17676 105.343V109.855L15.018 98.9145L13.9897 97.2227Z" fill="#0D0D0D"/>
        <path d="M26.7863 103.201L-4.17676 120.909V125.42L28.7286 106.697L26.7863 103.201Z" fill="#0D0D0D"/>
        <path d="M40.3826 111.096L-4.17676 136.473V140.985L42.3249 114.48L40.3826 111.096Z" fill="#0D0D0D"/>
        <path d="M40.3826 126.548L-4.17676 151.926V156.55L42.4392 129.932L40.3826 126.548Z" fill="#0D0D0D"/>
        <path d="M40.3826 142.113L-4.17676 167.49V172.002L42.4392 145.497L40.3826 142.113Z" fill="#0D0D0D"/>
        <path d="M40.3826 157.678L-4.17676 183.055V187.567L42.4392 161.061L40.3826 157.678Z" fill="#0D0D0D"/>
        <path d="M127.788 97.2229H121.732L123.218 99.8171L127.788 97.2229Z" fill="#0D0D0D"/>
        <path d="M137.042 107.599L155.094 97.2228H147.211L134.985 104.103L137.042 107.599Z" fill="#0D0D0D"/>
        <path d="M297.913 27.972L295.971 31.3556L300.541 33.9498V29.4382L297.913 27.972Z" fill="#0D0D0D"/>
        <path d="M295.855 46.8081L300.54 49.515V45.0035L297.798 43.4244L295.855 46.8081Z" fill="#0D0D0D"/>
        <path d="M295.855 62.373L300.54 65.0799V60.5684L297.798 58.9893L295.855 62.373Z" fill="#0D0D0D"/>
        <path d="M295.855 77.9376L300.54 80.6445V76.0202L297.798 74.5539L295.855 77.9376Z" fill="#0D0D0D"/>
        <path d="M295.399 98.2398L300.541 95.3073V90.7957L287.401 98.2398H295.399Z" fill="#0D0D0D"/>
        <path d="M208.68 24.9271H204.681V90.5703H208.68V24.9271Z" fill="#0D0D0D"/>
        <path d="M222.392 17.1443H218.393V98.3523H222.392V17.1443Z" fill="#0D0D0D"/>
        <path d="M235.987 9.588H231.988V98.3529H235.987V9.588Z" fill="#0D0D0D"/>
        <path d="M249.582 1.57968H245.583V98.3526H249.582V1.57968Z" fill="#0D0D0D"/>
        <path d="M263.294 9.588H259.295V98.3529H263.294V9.588Z" fill="#0D0D0D"/>
        <path d="M276.89 17.1443H272.891V98.3523H276.89V17.1443Z" fill="#0D0D0D"/>
        <path d="M290.6 24.9271H286.602V90.5703H290.6V24.9271Z" fill="#0D0D0D"/>
        <path d="M184.458 94.4051L191.313 98.24H199.197L186.515 91.0215L184.458 94.4051Z" fill="#0D0D0D"/>
        <path d="M83.6845 95.9843H79.6855V98.3529H83.6845V95.9843Z" fill="#0D0D0D"/>
        <path d="M97.2821 87.9761H93.2832V98.3527H97.2821V87.9761Z" fill="#0D0D0D"/>
        <path d="M110.992 95.9843H106.993V98.3529H110.992V95.9843Z" fill="#0D0D0D"/>
        <path d="M34.1987 4.58668L32.1992 8.00531L89.686 40.7705L91.6855 37.3519L34.1987 4.58668Z" fill="#0D0D0D"/>
        <path d="M20.393 12.2282L18.3936 15.6469L89.6336 56.2509L91.6331 52.8323L20.393 12.2282Z" fill="#0D0D0D"/>
        <path d="M6.78754 20.1217L4.78809 23.5404L89.5836 71.8704L91.5831 68.4518L6.78754 20.1217Z" fill="#0D0D0D"/>
        <path d="M91.5687 84.0284L-4.17676 29.4385V33.95L89.6264 87.412L91.5687 84.0284Z" fill="#0D0D0D"/>
        <path d="M78.2009 91.9241L-4.17676 45.0039V49.5155L76.2586 95.3078L78.2009 91.9241Z" fill="#0D0D0D"/>
        <path d="M-4.17676 65.0797L54.0932 98.2397H62.091L-4.17676 60.5682V65.0797Z" fill="#0D0D0D"/>
        <path d="M-4.17676 80.6446L26.7863 98.2397H34.7841L-4.17676 76.0202V80.6446Z" fill="#0D0D0D"/>
        <path d="M-0.749115 88.8785L-4.17676 90.7959V95.3075L1.30747 92.2622L-0.749115 88.8785Z" fill="#0D0D0D"/>
        <path d="M9.99121 98.2401H13.9901L13.0761 96.5482L9.99121 98.2401Z" fill="#0D0D0D"/>
        <path d="M275.518 14.4379L300.54 0.226453V-4.28511L273.576 11.0542L275.518 14.4379Z" fill="#0D0D0D"/>
        <path d="M289.344 22.2197L300.541 15.7907V11.2792L287.401 18.836L289.344 22.2197Z" fill="#0D0D0D"/>
        <path d="M151.599 2.42895L94.3105 35.0814L96.31 38.5L153.599 5.84759L151.599 2.42895Z" fill="#0D0D0D"/>
        <path d="M165.276 10.1666L94.2334 50.6578L96.2329 54.0765L167.275 13.5852L165.276 10.1666Z" fill="#0D0D0D"/>
        <path d="M179.045 17.842L94.249 66.1721L96.2485 69.5907L181.044 21.2606L179.045 17.842Z" fill="#0D0D0D"/>
        <path d="M192.647 25.6992L94.2959 81.7553L96.2954 85.1739L194.646 29.1178L192.647 25.6992Z" fill="#0D0D0D"/>
        <path d="M192.669 41.2626L107.676 89.7054L109.675 93.1241L194.669 44.6812L192.669 41.2626Z" fill="#0D0D0D"/>
        <path d="M192.799 56.7335L121.275 97.4503L121.732 98.2398H127.788L194.741 60.1172L192.799 56.7335Z" fill="#0D0D0D"/>
        <path d="M192.799 72.298L147.211 98.2395H155.095L194.741 75.6817L192.799 72.298Z" fill="#0D0D0D"/>
        <path d="M513.395 196.702H509.396V262.346H513.395V196.702Z" fill="#0D0D0D"/>
        <path d="M527.106 188.92H523.107V270.128H527.106V188.92Z" fill="#0D0D0D"/>
        <path d="M540.702 181.363H536.703V270.128H540.702V181.363Z" fill="#0D0D0D"/>
        <path d="M554.298 173.355H550.299V270.128H554.298V173.355Z" fill="#0D0D0D"/>
        <path d="M568.009 181.363H564.01V270.128H568.009V181.363Z" fill="#0D0D0D"/>
        <path d="M581.605 188.92H577.606V270.128H581.605V188.92Z" fill="#0D0D0D"/>
        <path d="M595.316 196.702H591.317V262.346H595.316V196.702Z" fill="#0D0D0D"/>
        <path d="M489.173 266.18L496.028 270.015H503.912L491.229 262.797L489.173 266.18Z" fill="#0D0D0D"/>
        <path d="M388.4 267.759H384.401V270.128H388.4V267.759Z" fill="#0D0D0D"/>
        <path d="M401.998 259.752H397.999V270.128H401.998V259.752Z" fill="#0D0D0D"/>
        <path d="M415.708 267.759H411.709V270.128H415.708V267.759Z" fill="#0D0D0D"/>
        <path d="M338.914 176.362L336.915 179.781L394.402 212.546L396.401 209.127L338.914 176.362Z" fill="#0D0D0D"/>
        <path d="M325.109 184.004L323.109 187.422L394.349 228.026L396.349 224.608L325.109 184.004Z" fill="#0D0D0D"/>
        <path d="M311.502 191.898L309.503 195.316L394.298 243.646L396.298 240.228L311.502 191.898Z" fill="#0D0D0D"/>
        <path d="M396.285 255.804L300.539 201.214V205.725L394.342 259.187L396.285 255.804Z" fill="#0D0D0D"/>
        <path d="M382.917 263.699L300.539 216.779V221.29L380.974 267.083L382.917 263.699Z" fill="#0D0D0D"/>
        <path d="M300.539 236.855L358.809 270.015H366.807L300.539 232.344V236.855Z" fill="#0D0D0D"/>
        <path d="M300.539 252.42L331.502 270.016H339.5L300.539 247.796V252.42Z" fill="#0D0D0D"/>
        <path d="M303.967 260.654L300.539 262.571V267.083L306.023 264.038L303.967 260.654Z" fill="#0D0D0D"/>
        <path d="M314.707 270.015H318.706L317.792 268.323L314.707 270.015Z" fill="#0D0D0D"/>
        <path d="M553.385 123.841L600.115 97.2227H592.117L551.328 120.457L553.385 123.841Z" fill="#0D0D0D"/>
        <path d="M553.385 139.406L605.256 109.855V105.344L551.328 136.022L553.385 139.406Z" fill="#0D0D0D"/>
        <path d="M553.385 154.971L605.256 125.42V120.908L551.328 151.587L553.385 154.971Z" fill="#0D0D0D"/>
        <path d="M553.385 170.536L605.256 140.985V136.474L551.328 167.152L553.385 170.536Z" fill="#0D0D0D"/>
        <path d="M566.752 178.431L605.256 156.55V151.925L564.81 175.047L566.752 178.431Z" fill="#0D0D0D"/>
        <path d="M580.233 186.213L605.255 172.002V167.49L578.291 182.83L580.233 186.213Z" fill="#0D0D0D"/>
        <path d="M594.06 193.996L605.257 187.567V183.055L592.117 190.612L594.06 193.996Z" fill="#0D0D0D"/>
        <path d="M527.106 97.2228H523.107V97.4505H527.106V97.2228Z" fill="#0D0D0D"/>
        <path d="M540.702 97.2227H536.703V105.005H540.702V97.2227Z" fill="#0D0D0D"/>
        <path d="M554.298 97.2228H550.299V112.675H554.298V97.2228Z" fill="#0D0D0D"/>
        <path d="M568.009 97.2227H564.01V105.005H568.009V97.2227Z" fill="#0D0D0D"/>
        <path d="M581.605 97.2228H577.606V97.4505H581.605V97.2228Z" fill="#0D0D0D"/>
        <path d="M548.7 122.713L503.912 97.2228H496.028L546.643 126.097L548.7 122.713Z" fill="#0D0D0D"/>
        <path d="M477.45 97.6342L475.45 101.053L546.69 141.657L548.69 138.238L477.45 97.6342Z" fill="#0D0D0D"/>
        <path d="M463.899 105.431L461.899 108.849L546.695 157.179L548.694 153.761L463.899 105.431Z" fill="#0D0D0D"/>
        <path d="M450.291 113.29L448.292 116.708L546.643 172.765L548.642 169.346L450.291 113.29Z" fill="#0D0D0D"/>
        <path d="M450.199 128.792L448.199 132.21L533.193 180.653L535.192 177.234L450.199 128.792Z" fill="#0D0D0D"/>
        <path d="M450.247 144.369L448.247 147.788L519.586 188.448L521.586 185.03L450.247 144.369Z" fill="#0D0D0D"/>
        <path d="M450.195 159.87L448.195 163.289L505.781 196.11L507.781 192.692L450.195 159.87Z" fill="#0D0D0D"/>
        <path d="M456.314 174.205L399.025 206.857L401.025 210.276L458.314 177.624L456.314 174.205Z" fill="#0D0D0D"/>
        <path d="M469.991 181.942L398.949 222.433L400.949 225.852L471.991 185.361L469.991 181.942Z" fill="#0D0D0D"/>
        <path d="M483.758 189.617L398.963 237.947L400.962 241.366L485.758 193.036L483.758 189.617Z" fill="#0D0D0D"/>
        <path d="M497.363 197.475L399.012 253.531L401.011 256.95L499.362 200.894L497.363 197.475Z" fill="#0D0D0D"/>
        <path d="M497.384 213.038L412.391 261.481L414.39 264.899L499.384 216.457L497.384 213.038Z" fill="#0D0D0D"/>
        <path d="M497.515 228.509L425.991 269.226L426.448 270.015H432.504L499.457 231.892L497.515 228.509Z" fill="#0D0D0D"/>
        <path d="M497.514 244.074L451.927 270.015H459.81L499.457 247.457L497.514 244.074Z" fill="#0D0D0D"/>
        <path d="M361.094 110.306H357.095V175.949H361.094V110.306Z" fill="#0D0D0D"/>
        <path d="M374.69 102.524H370.691V183.845H374.69V102.524Z" fill="#0D0D0D"/>
        <path d="M388.4 97.2227H384.401V191.402H388.4V97.2227Z" fill="#0D0D0D"/>
        <path d="M401.998 97.2228H397.999V199.184H401.998V97.2228Z" fill="#0D0D0D"/>
        <path d="M415.708 97.2227H411.709V191.402H415.708V97.2227Z" fill="#0D0D0D"/>
        <path d="M429.304 102.524H425.305V183.845H429.304V102.524Z" fill="#0D0D0D"/>
        <path d="M442.9 110.306H438.901V175.949H442.9V110.306Z" fill="#0D0D0D"/>
        <path d="M369.206 98.5762L366.806 97.2227H358.809L367.263 101.96L369.206 98.5762Z" fill="#0D0D0D"/>
        <path d="M355.495 106.359L339.5 97.2227H331.502L353.439 109.742L355.495 106.359Z" fill="#0D0D0D"/>
        <path d="M318.706 97.2227H314.707L300.539 105.343V109.855L319.734 98.9145L318.706 97.2227Z" fill="#0D0D0D"/>
        <path d="M331.502 103.201L300.539 120.909V125.42L333.444 106.697L331.502 103.201Z" fill="#0D0D0D"/>
        <path d="M345.098 111.096L300.539 136.473V140.985L347.041 114.48L345.098 111.096Z" fill="#0D0D0D"/>
        <path d="M345.098 126.548L300.539 151.925V156.55L347.155 129.931L345.098 126.548Z" fill="#0D0D0D"/>
        <path d="M345.098 142.113L300.539 167.49V172.002L347.155 145.496L345.098 142.113Z" fill="#0D0D0D"/>
        <path d="M345.098 157.678L300.539 183.055V187.567L347.155 161.061L345.098 157.678Z" fill="#0D0D0D"/>
        <path d="M432.504 97.2228H426.448L427.934 99.8169L432.504 97.2228Z" fill="#0D0D0D"/>
        <path d="M441.758 107.599L459.81 97.2227H451.926L439.701 104.103L441.758 107.599Z" fill="#0D0D0D"/>
        <path d="M602.629 27.972L600.687 31.3556L605.257 33.9498V29.4382L602.629 27.972Z" fill="#0D0D0D"/>
        <path d="M600.571 46.8081L605.256 49.515V45.0035L602.514 43.4244L600.571 46.8081Z" fill="#0D0D0D"/>
        <path d="M600.571 62.373L605.256 65.0799V60.5684L602.514 58.9893L600.571 62.373Z" fill="#0D0D0D"/>
        <path d="M600.571 77.9376L605.256 80.6445V76.0202L602.514 74.5539L600.571 77.9376Z" fill="#0D0D0D"/>
        <path d="M600.115 98.2398L605.256 95.3073V90.7957L592.117 98.2398H600.115Z" fill="#0D0D0D"/>
        <path d="M513.395 24.9271H509.396V90.5703H513.395V24.9271Z" fill="#0D0D0D"/>
        <path d="M527.106 17.1443H523.107V98.3523H527.106V17.1443Z" fill="#0D0D0D"/>
        <path d="M540.702 9.588H536.703V98.3529H540.702V9.588Z" fill="#0D0D0D"/>
        <path d="M554.298 1.57968H550.299V98.3526H554.298V1.57968Z" fill="#0D0D0D"/>
        <path d="M568.009 9.588H564.01V98.3529H568.009V9.588Z" fill="#0D0D0D"/>
        <path d="M581.605 17.1443H577.606V98.3523H581.605V17.1443Z" fill="#0D0D0D"/>
        <path d="M595.316 24.9271H591.317V90.5703H595.316V24.9271Z" fill="#0D0D0D"/>
        <path d="M489.173 94.4051L496.028 98.24H503.912L491.229 91.0215L489.173 94.4051Z" fill="#0D0D0D"/>
        <path d="M388.4 95.9843H384.401V98.3529H388.4V95.9843Z" fill="#0D0D0D"/>
        <path d="M401.997 87.9761H397.998V98.3527H401.997V87.9761Z" fill="#0D0D0D"/>
        <path d="M415.707 95.9843H411.708V98.3529H415.707V95.9843Z" fill="#0D0D0D"/>
        <path d="M338.914 4.58668L336.915 8.00531L394.402 40.7705L396.401 37.3519L338.914 4.58668Z" fill="#0D0D0D"/>
        <path d="M325.109 12.2282L323.109 15.6469L394.349 56.2508L396.349 52.8322L325.109 12.2282Z" fill="#0D0D0D"/>
        <path d="M311.502 20.1217L309.503 23.5404L394.298 71.8705L396.298 68.4518L311.502 20.1217Z" fill="#0D0D0D"/>
        <path d="M396.285 84.0284L300.539 29.4385V33.95L394.342 87.412L396.285 84.0284Z" fill="#0D0D0D"/>
        <path d="M382.917 91.9241L300.539 45.0039V49.5155L380.974 95.3078L382.917 91.9241Z" fill="#0D0D0D"/>
        <path d="M300.539 65.0797L358.809 98.2397H366.807L300.539 60.5682V65.0797Z" fill="#0D0D0D"/>
        <path d="M300.539 80.6446L331.502 98.2397H339.5L300.539 76.0202V80.6446Z" fill="#0D0D0D"/>
        <path d="M303.967 88.8785L300.539 90.7959V95.3075L306.023 92.2622L303.967 88.8785Z" fill="#0D0D0D"/>
        <path d="M314.706 98.2401H318.705L317.791 96.5482L314.706 98.2401Z" fill="#0D0D0D"/>
        <path d="M580.233 14.4379L605.255 0.226453V-4.28511L578.291 11.0542L580.233 14.4379Z" fill="#0D0D0D"/>
        <path d="M594.059 22.2197L605.256 15.7907V11.2792L592.117 18.836L594.059 22.2197Z" fill="#0D0D0D"/>
        <path d="M456.314 2.42916L399.025 35.0816L401.025 38.5002L458.314 5.8478L456.314 2.42916Z" fill="#0D0D0D"/>
        <path d="M469.991 10.1666L398.949 50.6578L400.949 54.0765L471.991 13.5852L469.991 10.1666Z" fill="#0D0D0D"/>
        <path d="M483.758 17.842L398.963 66.1721L400.962 69.5907L485.758 21.2606L483.758 17.842Z" fill="#0D0D0D"/>
        <path d="M497.363 25.6992L399.012 81.7553L401.011 85.1739L499.362 29.1178L497.363 25.6992Z" fill="#0D0D0D"/>
        <path d="M497.384 41.2626L412.391 89.7054L414.39 93.1241L499.384 44.6812L497.384 41.2626Z" fill="#0D0D0D"/>
        <path d="M497.514 56.7335L425.99 97.4503L426.447 98.2398H432.503L499.456 60.1172L497.514 56.7335Z" fill="#0D0D0D"/>
        <path d="M497.514 72.298L451.927 98.2395H459.81L499.457 75.6817L497.514 72.298Z" fill="#0D0D0D"/>
        <path d="M693.119 267.758H689.12V270.126H693.119V267.758Z" fill="#0D0D0D"/>
        <path d="M831.823 97.2206H827.824V97.4484H831.823V97.2206Z" fill="#0D0D0D"/>
        <path d="M665.811 110.304H661.812V175.947H665.811V110.304Z" fill="#0D0D0D"/>
        <path d="M679.408 102.522H675.409V183.843H679.408V102.522Z" fill="#0D0D0D"/>
        <path d="M693.119 97.2207H689.12V191.4H693.119V97.2207Z" fill="#0D0D0D"/>
        <path d="M706.713 97.2207H702.714V199.182H706.713V97.2207Z" fill="#0D0D0D"/>
        <path d="M720.425 97.2206H716.426V191.4H720.425V97.2206Z" fill="#0D0D0D"/>
        <path d="M734.02 102.522H730.021V183.843H734.02V102.522Z" fill="#0D0D0D"/>
        <path d="M747.618 110.304H743.619V175.947H747.618V110.304Z" fill="#0D0D0D"/>
        <path d="M673.924 98.5741L671.524 97.2207H663.526L671.981 101.958L673.924 98.5741Z" fill="#0D0D0D"/>
        <path d="M660.213 106.357L644.218 97.2207H636.22L658.157 109.74L660.213 106.357Z" fill="#0D0D0D"/>
        <path d="M623.423 97.2207H619.424L605.257 105.342V109.853L624.452 98.9126L623.423 97.2207Z" fill="#0D0D0D"/>
        <path d="M636.22 103.198L605.257 120.906V125.418L638.162 106.695L636.22 103.198Z" fill="#0D0D0D"/>
        <path d="M649.816 111.094L605.257 136.471V140.983L651.759 114.478L649.816 111.094Z" fill="#0D0D0D"/>
        <path d="M649.816 126.546L605.257 151.923V156.548L651.873 129.929L649.816 126.546Z" fill="#0D0D0D"/>
        <path d="M649.816 142.111L605.257 167.488V172L651.873 145.494L649.816 142.111Z" fill="#0D0D0D"/>
        <path d="M649.816 157.676L605.257 183.053V187.565L651.873 161.059L649.816 157.676Z" fill="#0D0D0D"/>
        <path d="M737.221 97.2207H731.165L732.65 99.8149L737.221 97.2207Z" fill="#0D0D0D"/>
        <path d="M746.476 107.597L764.528 97.2206H756.644L744.419 104.101L746.476 107.597Z" fill="#0D0D0D"/>
        <path d="M693.118 95.9823H689.119V98.3509H693.118V95.9823Z" fill="#0D0D0D"/>
        <path d="M706.713 87.9739H702.714V98.3505H706.713V87.9739Z" fill="#0D0D0D"/>
        <path d="M720.426 95.9823H716.427V98.3509H720.426V95.9823Z" fill="#0D0D0D"/>
        <path d="M643.632 4.58514L641.633 8.00377L699.12 40.769L701.119 37.3503L643.632 4.58514Z" fill="#0D0D0D"/>
        <path d="M629.827 12.2267L627.827 15.6453L699.067 56.2493L701.067 52.8307L629.827 12.2267Z" fill="#0D0D0D"/>
        <path d="M616.22 20.1197L614.221 23.5383L699.016 71.8684L701.016 68.4498L616.22 20.1197Z" fill="#0D0D0D"/>
        <path d="M701.002 84.0271L605.257 29.4372V33.9488L699.06 87.4108L701.002 84.0271Z" fill="#0D0D0D"/>
        <path d="M687.634 91.9217L605.257 45.0015V49.5131L685.692 95.3054L687.634 91.9217Z" fill="#0D0D0D"/>
        <path d="M605.257 65.0777L663.527 98.2376H671.524L605.257 60.5661V65.0777Z" fill="#0D0D0D"/>
        <path d="M605.257 80.6432L636.22 98.2383H644.218L605.257 76.0189V80.6432Z" fill="#0D0D0D"/>
        <path d="M608.684 88.8767L605.257 90.7941V95.3057L610.741 92.2604L608.684 88.8767Z" fill="#0D0D0D"/>
        <path d="M619.425 98.2382H623.424L622.51 96.5464L619.425 98.2382Z" fill="#0D0D0D"/>
        <path d="M761.032 2.42735L703.743 35.0798L705.743 38.4984L763.032 5.84599L761.032 2.42735Z" fill="#0D0D0D"/>
        <path d="M774.709 10.1645L703.667 50.6557L705.666 54.0744L776.709 13.5831L774.709 10.1645Z" fill="#0D0D0D"/>
        <path d="M788.476 17.8404L703.681 66.1705L705.68 69.5891L790.476 21.259L788.476 17.8404Z" fill="#0D0D0D"/>
        <path d="M802.08 25.6976L703.729 81.7538L705.729 85.1724L804.08 29.1163L802.08 25.6976Z" fill="#0D0D0D"/>
        <path d="M802.102 41.2607L717.108 89.7036L719.108 93.1222L804.101 44.6794L802.102 41.2607Z" fill="#0D0D0D"/>
        <path d="M802.232 56.7316L730.709 97.4485L731.166 98.238H737.221L804.175 60.1153L802.232 56.7316Z" fill="#0D0D0D"/>
        <path d="M802.23 72.2965L756.643 98.238H764.526L804.173 75.6802L802.23 72.2965Z" fill="#0D0D0D"/>
        <path d="M527.106 614.809H523.107V615.037H527.106V614.809Z" fill="#0D0D0D"/>
        <path d="M540.702 614.809H536.703V622.592H540.702V614.809Z" fill="#0D0D0D"/>
        <path d="M554.298 614.809H550.299V630.261H554.298V614.809Z" fill="#0D0D0D"/>
        <path d="M568.009 614.809H564.01V622.592H568.009V614.809Z" fill="#0D0D0D"/>
        <path d="M581.605 614.809H577.606V615.037H581.605V614.809Z" fill="#0D0D0D"/>
        <path d="M548.7 640.3L503.912 614.809H496.028L546.643 643.683L548.7 640.3Z" fill="#0D0D0D"/>
        <path d="M477.449 615.221L475.449 618.64L546.689 659.244L548.689 655.825L477.449 615.221Z" fill="#0D0D0D"/>
        <path d="M463.899 623.017L461.899 626.435L546.695 674.765L548.694 671.347L463.899 623.017Z" fill="#0D0D0D"/>
        <path d="M450.291 630.876L448.292 634.295L546.643 690.351L548.642 686.933L450.291 630.876Z" fill="#0D0D0D"/>
        <path d="M450.199 646.378L448.199 649.796L533.193 698.239L535.192 694.82L450.199 646.378Z" fill="#0D0D0D"/>
        <path d="M450.247 661.956L448.247 665.375L519.586 706.035L521.586 702.616L450.247 661.956Z" fill="#0D0D0D"/>
        <path d="M450.195 677.456L448.195 680.875L505.781 713.696L507.781 710.278L450.195 677.456Z" fill="#0D0D0D"/>
        <path d="M361.094 627.893H357.095V693.536H361.094V627.893Z" fill="#0D0D0D"/>
        <path d="M374.69 620.11H370.691V701.431H374.69V620.11Z" fill="#0D0D0D"/>
        <path d="M388.4 614.809H384.401V708.988H388.4V614.809Z" fill="#0D0D0D"/>
        <path d="M401.998 614.809H397.999V716.77H401.998V614.809Z" fill="#0D0D0D"/>
        <path d="M415.708 614.809H411.709V708.988H415.708V614.809Z" fill="#0D0D0D"/>
        <path d="M429.304 620.11H425.305V701.431H429.304V620.11Z" fill="#0D0D0D"/>
        <path d="M442.9 627.893H438.901V693.536H442.9V627.893Z" fill="#0D0D0D"/>
        <path d="M369.206 616.163L366.806 614.809H358.809L367.263 619.546L369.206 616.163Z" fill="#0D0D0D"/>
        <path d="M355.495 623.945L339.5 614.809H331.502L353.439 627.329L355.495 623.945Z" fill="#0D0D0D"/>
        <path d="M318.706 614.809H314.707L300.539 622.93V627.442L319.734 616.501L318.706 614.809Z" fill="#0D0D0D"/>
        <path d="M331.502 620.787L300.539 638.495V643.006L333.444 624.283L331.502 620.787Z" fill="#0D0D0D"/>
        <path d="M345.098 628.682L300.539 654.06V658.571L347.041 632.066L345.098 628.682Z" fill="#0D0D0D"/>
        <path d="M345.098 644.134L300.539 669.512V674.136L347.155 647.518L345.098 644.134Z" fill="#0D0D0D"/>
        <path d="M345.098 659.699L300.539 685.077V689.589L347.155 663.083L345.098 659.699Z" fill="#0D0D0D"/>
        <path d="M345.098 675.264L300.539 700.642V705.153L347.155 678.648L345.098 675.264Z" fill="#0D0D0D"/>
        <path d="M432.504 614.809H426.448L427.934 617.403L432.504 614.809Z" fill="#0D0D0D"/>
        <path d="M441.758 625.186L459.81 614.809H451.926L439.701 621.689L441.758 625.186Z" fill="#0D0D0D"/>
        <path d="M513.395 542.514H509.396V608.157H513.395V542.514Z" fill="#0D0D0D"/>
        <path d="M527.106 534.731H523.107V615.939H527.106V534.731Z" fill="#0D0D0D"/>
        <path d="M540.702 527.175H536.703V615.94H540.702V527.175Z" fill="#0D0D0D"/>
        <path d="M554.298 519.166H550.299V615.939H554.298V519.166Z" fill="#0D0D0D"/>
        <path d="M568.009 527.175H564.01V615.94H568.009V527.175Z" fill="#0D0D0D"/>
        <path d="M581.605 534.731H577.606V615.939H581.605V534.731Z" fill="#0D0D0D"/>
        <path d="M595.316 542.514H591.317V608.157H595.316V542.514Z" fill="#0D0D0D"/>
        <path d="M489.173 611.992L496.028 615.826H503.912L491.229 608.608L489.173 611.992Z" fill="#0D0D0D"/>
        <path d="M388.4 613.57H384.401V615.939H388.4V613.57Z" fill="#0D0D0D"/>
        <path d="M401.998 605.563H397.999V615.939H401.998V605.563Z" fill="#0D0D0D"/>
        <path d="M415.708 613.57H411.709V615.939H415.708V613.57Z" fill="#0D0D0D"/>
        <path d="M338.914 522.173L336.915 525.592L394.402 558.357L396.401 554.939L338.914 522.173Z" fill="#0D0D0D"/>
        <path d="M325.109 529.815L323.109 533.233L394.349 573.838L396.349 570.419L325.109 529.815Z" fill="#0D0D0D"/>
        <path d="M311.502 537.708L309.503 541.127L394.298 589.457L396.298 586.039L311.502 537.708Z" fill="#0D0D0D"/>
        <path d="M396.285 601.615L300.539 547.025V551.537L394.342 604.999L396.285 601.615Z" fill="#0D0D0D"/>
        <path d="M382.917 609.51L300.539 562.59V567.101L380.974 612.894L382.917 609.51Z" fill="#0D0D0D"/>
        <path d="M300.539 582.667L358.809 615.827H366.807L300.539 578.155V582.667Z" fill="#0D0D0D"/>
        <path d="M300.539 598.231L331.502 615.826H339.5L300.539 593.607V598.231Z" fill="#0D0D0D"/>
        <path d="M303.967 606.465L300.539 608.383V612.894L306.023 609.849L303.967 606.465Z" fill="#0D0D0D"/>
        <path d="M314.707 615.826H318.706L317.792 614.135L314.707 615.826Z" fill="#0D0D0D"/>
        <path d="M527.106 443.034H523.107V443.261H527.106V443.034Z" fill="#0D0D0D"/>
        <path d="M581.605 443.034H577.606V443.261H581.605V443.034Z" fill="#0D0D0D"/>
        <path d="M548.7 468.524L503.912 443.034H496.028L546.643 471.908L548.7 468.524Z" fill="#0D0D0D"/>
        <path d="M477.449 443.446L475.449 446.864L546.689 487.468L548.689 484.05L477.449 443.446Z" fill="#0D0D0D"/>
        <path d="M463.899 451.241L461.899 454.66L546.695 502.99L548.694 499.572L463.899 451.241Z" fill="#0D0D0D"/>
        <path d="M450.291 459.101L448.292 462.519L546.643 518.576L548.642 515.157L450.291 459.101Z" fill="#0D0D0D"/>
        <path d="M450.199 474.602L448.199 478.021L533.193 526.464L535.192 523.045L450.199 474.602Z" fill="#0D0D0D"/>
        <path d="M450.247 490.18L448.247 493.599L519.586 534.26L521.586 530.841L450.247 490.18Z" fill="#0D0D0D"/>
        <path d="M450.195 505.681L448.195 509.1L505.781 541.921L507.781 538.503L450.195 505.681Z" fill="#0D0D0D"/>
        <path d="M456.314 520.016L399.025 552.668L401.025 556.087L458.314 523.435L456.314 520.016Z" fill="#0D0D0D"/>
        <path d="M469.991 527.753L398.949 568.245L400.949 571.663L471.991 531.172L469.991 527.753Z" fill="#0D0D0D"/>
        <path d="M483.758 535.428L398.963 583.758L400.962 587.177L485.758 538.847L483.758 535.428Z" fill="#0D0D0D"/>
        <path d="M497.363 543.286L399.012 599.342L401.011 602.761L499.362 546.705L497.363 543.286Z" fill="#0D0D0D"/>
        <path d="M497.384 558.849L412.391 607.292L414.39 610.71L499.383 562.268L497.384 558.849Z" fill="#0D0D0D"/>
        <path d="M497.515 574.32L425.991 615.037L426.448 615.826H432.504L499.457 577.704L497.515 574.32Z" fill="#0D0D0D"/>
        <path d="M497.514 589.885L451.927 615.827H459.81L499.457 593.269L497.514 589.885Z" fill="#0D0D0D"/>
        <path d="M361.094 456.117H357.095V521.76H361.094V456.117Z" fill="#0D0D0D"/>
        <path d="M374.69 448.335H370.691V529.656H374.69V448.335Z" fill="#0D0D0D"/>
        <path d="M388.4 443.034H384.401V537.212H388.4V443.034Z" fill="#0D0D0D"/>
        <path d="M401.998 443.034H397.999V544.995H401.998V443.034Z" fill="#0D0D0D"/>
        <path d="M415.708 443.034H411.709V537.212H415.708V443.034Z" fill="#0D0D0D"/>
        <path d="M429.304 448.335H425.305V529.656H429.304V448.335Z" fill="#0D0D0D"/>
        <path d="M442.9 456.117H438.901V521.76H442.9V456.117Z" fill="#0D0D0D"/>
        <path d="M369.206 444.387L366.806 443.034H358.809L367.263 447.771L369.206 444.387Z" fill="#0D0D0D"/>
        <path d="M355.495 452.17L339.5 443.034H331.502L353.439 455.553L355.495 452.17Z" fill="#0D0D0D"/>
        <path d="M318.706 443.034H314.707L300.539 451.154V455.666L319.734 444.726L318.706 443.034Z" fill="#0D0D0D"/>
        <path d="M331.502 449.012L300.539 466.719V471.231L333.444 452.508L331.502 449.012Z" fill="#0D0D0D"/>
        <path d="M345.098 456.907L300.539 482.284V486.796L347.041 460.29L345.098 456.907Z" fill="#0D0D0D"/>
        <path d="M345.098 472.359L300.539 497.737V502.361L347.155 475.743L345.098 472.359Z" fill="#0D0D0D"/>
        <path d="M345.098 487.924L300.539 513.301V517.813L347.155 491.307L345.098 487.924Z" fill="#0D0D0D"/>
        <path d="M345.098 503.489L300.539 528.866V533.378L347.155 506.872L345.098 503.489Z" fill="#0D0D0D"/>
        <path d="M432.504 443.034H426.448L427.934 445.628L432.504 443.034Z" fill="#0D0D0D"/>
        <path d="M441.758 453.41L459.81 443.034H451.926L439.701 449.914L441.758 453.41Z" fill="#0D0D0D"/>
        <path d="M489.173 439.086L496.028 442.921H503.912L491.229 435.702L489.173 439.086Z" fill="#0D0D0D"/>
        <path d="M388.4 440.665H384.401V443.033H388.4V440.665Z" fill="#0D0D0D"/>
        <path d="M401.998 432.657H397.999V443.034H401.998V432.657Z" fill="#0D0D0D"/>
        <path d="M415.708 440.665H411.709V443.033H415.708V440.665Z" fill="#0D0D0D"/>
        <path d="M338.914 349.268L336.915 352.686L394.402 385.451L396.401 382.033L338.914 349.268Z" fill="#0D0D0D"/>
        <path d="M325.109 356.909L323.109 360.328L394.349 400.932L396.349 397.513L325.109 356.909Z" fill="#0D0D0D"/>
        <path d="M311.502 364.803L309.503 368.221L394.298 416.551L396.298 413.133L311.502 364.803Z" fill="#0D0D0D"/>
        <path d="M396.285 428.709L300.539 374.119V378.631L394.342 432.093L396.285 428.709Z" fill="#0D0D0D"/>
        <path d="M382.917 436.605L300.539 389.684V394.196L380.974 439.988L382.917 436.605Z" fill="#0D0D0D"/>
        <path d="M300.539 409.761L358.809 442.921H366.807L300.539 405.249V409.761Z" fill="#0D0D0D"/>
        <path d="M300.539 425.326L331.502 442.921H339.5L300.539 420.701V425.326Z" fill="#0D0D0D"/>
        <path d="M303.967 433.559L300.539 435.477V439.988L306.023 436.943L303.967 433.559Z" fill="#0D0D0D"/>
        <path d="M314.707 442.921H318.706L317.792 441.229L314.707 442.921Z" fill="#0D0D0D"/>
        <path d="M527.106 270.128H523.107V270.356H527.106V270.128Z" fill="#0D0D0D"/>
        <path d="M540.702 270.128H536.703V277.911H540.702V270.128Z" fill="#0D0D0D"/>
        <path d="M554.298 270.128H550.299V285.58H554.298V270.128Z" fill="#0D0D0D"/>
        <path d="M568.009 270.128H564.01V277.911H568.009V270.128Z" fill="#0D0D0D"/>
        <path d="M581.605 270.128H577.606V270.356H581.605V270.128Z" fill="#0D0D0D"/>
        <path d="M548.7 295.619L503.912 270.128H496.028L546.643 299.002L548.7 295.619Z" fill="#0D0D0D"/>
        <path d="M477.45 270.54L475.45 273.958L546.69 314.562L548.69 311.144L477.45 270.54Z" fill="#0D0D0D"/>
        <path d="M463.899 278.336L461.899 281.754L546.695 330.084L548.694 326.666L463.899 278.336Z" fill="#0D0D0D"/>
        <path d="M450.291 286.195L448.292 289.614L546.643 345.67L548.642 342.251L450.291 286.195Z" fill="#0D0D0D"/>
        <path d="M450.199 301.697L448.199 305.115L533.193 353.559L535.192 350.14L450.199 301.697Z" fill="#0D0D0D"/>
        <path d="M450.247 317.275L448.247 320.693L519.586 361.354L521.586 357.935L450.247 317.275Z" fill="#0D0D0D"/>
        <path d="M450.195 332.775L448.195 336.194L505.781 369.016L507.781 365.597L450.195 332.775Z" fill="#0D0D0D"/>
        <path d="M456.314 347.11L399.025 379.763L401.025 383.181L458.314 350.529L456.314 347.11Z" fill="#0D0D0D"/>
        <path d="M469.991 354.847L398.949 395.339L400.949 398.757L471.991 358.266L469.991 354.847Z" fill="#0D0D0D"/>
        <path d="M483.758 362.523L398.963 410.853L400.962 414.271L485.758 365.941L483.758 362.523Z" fill="#0D0D0D"/>
        <path d="M497.363 370.38L399.012 426.437L401.011 429.855L499.362 373.799L497.363 370.38Z" fill="#0D0D0D"/>
        <path d="M497.384 385.943L412.391 434.386L414.39 437.805L499.383 389.362L497.384 385.943Z" fill="#0D0D0D"/>
        <path d="M497.515 401.414L425.991 442.131L426.448 442.921H432.504L499.457 404.798L497.515 401.414Z" fill="#0D0D0D"/>
        <path d="M497.514 416.979L451.927 442.921H459.81L499.457 420.363L497.514 416.979Z" fill="#0D0D0D"/>
        <path d="M361.094 283.212H357.095V348.855H361.094V283.212Z" fill="#0D0D0D"/>
        <path d="M374.69 275.429H370.691V356.75H374.69V275.429Z" fill="#0D0D0D"/>
        <path d="M388.4 270.128H384.401V364.307H388.4V270.128Z" fill="#0D0D0D"/>
        <path d="M401.998 270.128H397.999V372.089H401.998V270.128Z" fill="#0D0D0D"/>
        <path d="M415.708 270.128H411.709V364.307H415.708V270.128Z" fill="#0D0D0D"/>
        <path d="M429.304 275.429H425.305V356.75H429.304V275.429Z" fill="#0D0D0D"/>
        <path d="M442.9 283.212H438.901V348.855H442.9V283.212Z" fill="#0D0D0D"/>
        <path d="M369.206 271.482L366.806 270.128H358.809L367.263 274.865L369.206 271.482Z" fill="#0D0D0D"/>
        <path d="M355.495 279.264L339.5 270.128H331.502L353.439 282.648L355.495 279.264Z" fill="#0D0D0D"/>
        <path d="M318.706 270.128H314.707L300.539 278.249V282.761L319.734 271.82L318.706 270.128Z" fill="#0D0D0D"/>
        <path d="M331.502 276.106L300.539 293.814V298.325L333.444 279.602L331.502 276.106Z" fill="#0D0D0D"/>
        <path d="M345.098 284.001L300.539 309.379V313.89L347.041 287.385L345.098 284.001Z" fill="#0D0D0D"/>
        <path d="M345.098 299.453L300.539 324.831V329.455L347.155 302.837L345.098 299.453Z" fill="#0D0D0D"/>
        <path d="M345.098 315.018L300.539 340.396V344.907L347.155 318.402L345.098 315.018Z" fill="#0D0D0D"/>
        <path d="M345.098 330.583L300.539 355.96V360.472L347.155 333.967L345.098 330.583Z" fill="#0D0D0D"/>
        <path d="M432.504 270.128H426.448L427.934 272.722L432.504 270.128Z" fill="#0D0D0D"/>
        <path d="M441.758 280.505L459.81 270.128H451.926L439.701 277.008L441.758 280.505Z" fill="#0D0D0D"/>
    </g>
    <g opacity="0.06">
        <path d="M1256.78 898.948H1260.78V833.305H1256.78V898.948Z" fill="#0D0D0D"/>
        <path d="M1243.07 906.731H1247.07V825.523H1243.07V906.731Z" fill="#0D0D0D"/>
        <path d="M1229.47 914.288H1233.47V825.523H1229.47V914.288Z" fill="#0D0D0D"/>
        <path d="M1215.88 922.296H1219.88V825.523H1215.88V922.296Z" fill="#0D0D0D"/>
        <path d="M1202.17 914.288H1206.17V825.523H1202.17V914.288Z" fill="#0D0D0D"/>
        <path d="M1188.57 906.731H1192.57V825.523H1188.57V906.731Z" fill="#0D0D0D"/>
        <path d="M1174.86 898.948H1178.86V833.305H1174.86V898.948Z" fill="#0D0D0D"/>
        <path d="M1281 829.471L1274.15 825.636H1266.27L1278.95 832.854L1281 829.471Z" fill="#0D0D0D"/>
        <path d="M1381.77 827.892H1385.77V825.523H1381.77V827.892Z" fill="#0D0D0D"/>
        <path d="M1368.18 835.899H1372.18V825.523H1368.18V835.899Z" fill="#0D0D0D"/>
        <path d="M1354.47 827.892H1358.47V825.523H1354.47V827.892Z" fill="#0D0D0D"/>
        <path d="M1431.26 919.289L1433.26 915.87L1375.77 883.105L1373.78 886.524L1431.26 919.289Z" fill="#0D0D0D"/>
        <path d="M1445.07 911.647L1447.07 908.229L1375.83 867.625L1373.83 871.043L1445.07 911.647Z" fill="#0D0D0D"/>
        <path d="M1458.67 903.753L1460.67 900.335L1375.88 852.005L1373.88 855.423L1458.67 903.753Z" fill="#0D0D0D"/>
        <path d="M1373.89 839.847L1469.64 894.437V889.926L1375.83 836.464L1373.89 839.847Z" fill="#0D0D0D"/>
        <path d="M1387.26 831.952L1469.64 878.872V874.361L1389.2 828.569L1387.26 831.952Z" fill="#0D0D0D"/>
        <path d="M1469.64 858.796L1411.37 825.636H1403.37L1469.64 863.308V858.796Z" fill="#0D0D0D"/>
        <path d="M1469.64 843.231L1438.67 825.635H1430.68L1469.64 847.855V843.231Z" fill="#0D0D0D"/>
        <path d="M1216.79 971.81L1170.06 998.428H1178.06L1218.85 975.194L1216.79 971.81Z" fill="#0D0D0D"/>
        <path d="M1216.79 956.245L1164.92 985.796V990.307L1218.85 959.629L1216.79 956.245Z" fill="#0D0D0D"/>
        <path d="M1216.79 940.681L1164.92 970.231V974.743L1218.85 944.064L1216.79 940.681Z" fill="#0D0D0D"/>
        <path d="M1216.79 925.116L1164.92 954.666V959.178L1218.85 928.499L1216.79 925.116Z" fill="#0D0D0D"/>
        <path d="M1203.42 917.22L1164.92 939.101V943.726L1205.37 920.604L1203.42 917.22Z" fill="#0D0D0D"/>
        <path d="M1189.94 909.438L1164.92 923.649V928.161L1191.88 912.821L1189.94 909.438Z" fill="#0D0D0D"/>
        <path d="M1176.12 901.655L1164.92 908.084V912.596L1178.06 905.039L1176.12 901.655Z" fill="#0D0D0D"/>
        <path d="M1243.07 998.428H1247.07V998.201H1243.07V998.428Z" fill="#0D0D0D"/>
        <path d="M1229.47 998.428H1233.47V990.646H1229.47V998.428Z" fill="#0D0D0D"/>
        <path d="M1215.88 998.428H1219.88V982.976H1215.88V998.428Z" fill="#0D0D0D"/>
        <path d="M1202.17 998.428H1206.17V990.646H1202.17V998.428Z" fill="#0D0D0D"/>
        <path d="M1188.57 998.428H1192.57V998.201H1188.57V998.428Z" fill="#0D0D0D"/>
        <path d="M1221.48 972.938L1266.26 998.428H1274.15L1223.53 969.554L1221.48 972.938Z" fill="#0D0D0D"/>
        <path d="M1292.73 998.017L1294.73 994.598L1223.49 953.994L1221.49 957.413L1292.73 998.017Z" fill="#0D0D0D"/>
        <path d="M1306.28 990.221L1308.28 986.802L1223.48 938.472L1221.48 941.891L1306.28 990.221Z" fill="#0D0D0D"/>
        <path d="M1319.88 982.362L1321.88 978.943L1223.53 922.887L1221.53 926.305L1319.88 982.362Z" fill="#0D0D0D"/>
        <path d="M1319.98 966.86L1321.98 963.441L1236.98 914.998L1234.98 918.417L1319.98 966.86Z" fill="#0D0D0D"/>
        <path d="M1319.93 951.282L1321.93 947.863L1250.59 907.203L1248.59 910.621L1319.93 951.282Z" fill="#0D0D0D"/>
        <path d="M1319.98 935.781L1321.98 932.363L1264.39 899.541L1262.4 902.96L1319.98 935.781Z" fill="#0D0D0D"/>
        <path d="M1313.86 921.446L1371.15 888.794L1369.15 885.375L1311.86 918.028L1313.86 921.446Z" fill="#0D0D0D"/>
        <path d="M1300.18 913.709L1371.23 873.218L1369.23 869.799L1298.18 910.29L1300.18 913.709Z" fill="#0D0D0D"/>
        <path d="M1286.42 906.034L1371.21 857.704L1369.21 854.285L1284.42 902.615L1286.42 906.034Z" fill="#0D0D0D"/>
        <path d="M1272.81 898.176L1371.16 842.12L1369.16 838.701L1270.81 894.757L1272.81 898.176Z" fill="#0D0D0D"/>
        <path d="M1272.79 882.613L1357.79 834.171L1355.79 830.752L1270.79 879.195L1272.79 882.613Z" fill="#0D0D0D"/>
        <path d="M1272.66 867.142L1344.18 826.425L1343.73 825.636H1337.67L1270.72 863.758L1272.66 867.142Z" fill="#0D0D0D"/>
        <path d="M1272.66 851.578L1318.25 825.636H1310.37L1270.72 848.194L1272.66 851.578Z" fill="#0D0D0D"/>
        <path d="M1409.08 985.345H1413.08V919.702H1409.08V985.345Z" fill="#0D0D0D"/>
        <path d="M1395.49 993.127H1399.48V911.806H1395.49V993.127Z" fill="#0D0D0D"/>
        <path d="M1381.77 998.428H1385.77V904.249H1381.77V998.428Z" fill="#0D0D0D"/>
        <path d="M1368.18 998.428H1372.18V896.467H1368.18V998.428Z" fill="#0D0D0D"/>
        <path d="M1354.47 998.428H1358.47V904.249H1354.47V998.428Z" fill="#0D0D0D"/>
        <path d="M1340.87 993.127H1344.87V911.806H1340.87V993.127Z" fill="#0D0D0D"/>
        <path d="M1327.27 985.345H1331.27V919.702H1327.27V985.345Z" fill="#0D0D0D"/>
        <path d="M1400.97 997.075L1403.37 998.428H1411.37L1402.91 993.691L1400.97 997.075Z" fill="#0D0D0D"/>
        <path d="M1414.68 989.292L1430.68 998.428H1438.67L1416.74 985.909L1414.68 989.292Z" fill="#0D0D0D"/>
        <path d="M1438.67 992.451L1469.64 974.743V970.231L1436.73 988.954L1438.67 992.451Z" fill="#0D0D0D"/>
        <path d="M1425.08 984.555L1469.64 959.178V954.666L1423.14 981.172L1425.08 984.555Z" fill="#0D0D0D"/>
        <path d="M1425.08 969.103L1469.64 943.726V939.101L1423.02 965.72L1425.08 969.103Z" fill="#0D0D0D"/>
        <path d="M1425.08 953.538L1469.64 928.161V923.649L1423.02 950.155L1425.08 953.538Z" fill="#0D0D0D"/>
        <path d="M1425.08 937.974L1469.64 912.596V908.085L1423.02 934.59L1425.08 937.974Z" fill="#0D0D0D"/>
        <path d="M1337.67 998.428H1343.73L1342.24 995.834L1337.67 998.428Z" fill="#0D0D0D"/>
        <path d="M1328.42 988.052L1310.37 998.428H1318.25L1330.47 991.548L1328.42 988.052Z" fill="#0D0D0D"/>
        <path d="M1167.55 1067.68L1169.49 1064.3L1164.92 1061.7V1066.21L1167.55 1067.68Z" fill="#0D0D0D"/>
        <path d="M1169.61 1048.84L1164.92 1046.14V1050.65L1167.66 1052.23L1169.61 1048.84Z" fill="#0D0D0D"/>
        <path d="M1169.61 1033.28L1164.92 1030.57V1035.08L1167.66 1036.66L1169.61 1033.28Z" fill="#0D0D0D"/>
        <path d="M1169.61 1017.71L1164.92 1015.01V1019.63L1167.66 1021.1L1169.61 1017.71Z" fill="#0D0D0D"/>
        <path d="M1170.06 997.411L1164.92 1000.34V1004.86L1178.06 997.411H1170.06Z" fill="#0D0D0D"/>
        <path d="M1256.78 1070.72H1260.78V1005.08H1256.78V1070.72Z" fill="#0D0D0D"/>
        <path d="M1243.07 1078.51H1247.07V997.298H1243.07V1078.51Z" fill="#0D0D0D"/>
        <path d="M1229.47 1086.06H1233.47V997.298H1229.47V1086.06Z" fill="#0D0D0D"/>
        <path d="M1215.88 1094.07H1219.88V997.299H1215.88V1094.07Z" fill="#0D0D0D"/>
        <path d="M1202.17 1086.06H1206.17V997.298H1202.17V1086.06Z" fill="#0D0D0D"/>
        <path d="M1188.57 1078.51H1192.57V997.298H1188.57V1078.51Z" fill="#0D0D0D"/>
        <path d="M1174.86 1070.72H1178.86V1005.08H1174.86V1070.72Z" fill="#0D0D0D"/>
        <path d="M1281 1001.25L1274.15 997.411H1266.27L1278.95 1004.63L1281 1001.25Z" fill="#0D0D0D"/>
        <path d="M1381.77 999.667H1385.77V997.298H1381.77V999.667Z" fill="#0D0D0D"/>
        <path d="M1368.18 1007.67H1372.18V997.298H1368.18V1007.67Z" fill="#0D0D0D"/>
        <path d="M1354.47 999.667H1358.47V997.298H1354.47V999.667Z" fill="#0D0D0D"/>
        <path d="M1431.26 1091.06L1433.26 1087.65L1375.77 1054.88L1373.78 1058.3L1431.26 1091.06Z" fill="#0D0D0D"/>
        <path d="M1445.07 1083.42L1447.07 1080L1375.83 1039.4L1373.83 1042.82L1445.07 1083.42Z" fill="#0D0D0D"/>
        <path d="M1458.67 1075.53L1460.67 1072.11L1375.88 1023.78L1373.88 1027.2L1458.67 1075.53Z" fill="#0D0D0D"/>
        <path d="M1373.89 1011.62L1469.64 1066.21V1061.7L1375.83 1008.24L1373.89 1011.62Z" fill="#0D0D0D"/>
        <path d="M1387.26 1003.73L1469.64 1050.65V1046.14L1389.2 1000.34L1387.26 1003.73Z" fill="#0D0D0D"/>
        <path d="M1469.64 1030.57L1411.37 997.411H1403.37L1469.64 1035.08V1030.57Z" fill="#0D0D0D"/>
        <path d="M1469.64 1015.01L1438.67 997.411H1430.68L1469.64 1019.63V1015.01Z" fill="#0D0D0D"/>
        <path d="M1189.94 1081.21L1164.92 1095.42V1099.94L1191.88 1084.6L1189.94 1081.21Z" fill="#0D0D0D"/>
        <path d="M1176.12 1073.43L1164.92 1079.86V1084.37L1178.06 1076.81L1176.12 1073.43Z" fill="#0D0D0D"/>
        <path d="M1313.86 1093.22L1371.15 1060.57L1369.15 1057.15L1311.86 1089.8L1313.86 1093.22Z" fill="#0D0D0D"/>
        <path d="M1300.18 1085.48L1371.23 1044.99L1369.23 1041.57L1298.18 1082.07L1300.18 1085.48Z" fill="#0D0D0D"/>
        <path d="M1286.42 1077.81L1371.21 1029.48L1369.21 1026.06L1284.42 1074.39L1286.42 1077.81Z" fill="#0D0D0D"/>
        <path d="M1272.81 1069.95L1371.16 1013.9L1369.16 1010.48L1270.81 1066.53L1272.81 1069.95Z" fill="#0D0D0D"/>
        <path d="M1272.79 1054.39L1357.79 1005.95L1355.79 1002.53L1270.79 1050.97L1272.79 1054.39Z" fill="#0D0D0D"/>
        <path d="M1272.66 1038.92L1344.19 998.201L1343.73 997.411H1337.67L1270.72 1035.53L1272.66 1038.92Z" fill="#0D0D0D"/>
        <path d="M1272.66 1023.35L1318.25 997.411H1310.37L1270.72 1019.97L1272.66 1023.35Z" fill="#0D0D0D"/>
        <path d="M1077.06 827.893H1081.05V825.525H1077.06V827.893Z" fill="#0D0D0D"/>
        <path d="M938.352 998.43H942.351V998.202H938.352V998.43Z" fill="#0D0D0D"/>
        <path d="M1104.36 985.347H1108.36V919.704H1104.36V985.347Z" fill="#0D0D0D"/>
        <path d="M1090.77 993.129H1094.77V911.808H1090.77V993.129Z" fill="#0D0D0D"/>
        <path d="M1077.06 998.43H1081.05V904.251H1077.06V998.43Z" fill="#0D0D0D"/>
        <path d="M1063.46 998.43H1067.46V896.469H1063.46V998.43Z" fill="#0D0D0D"/>
        <path d="M1049.75 998.43H1053.75V904.251H1049.75V998.43Z" fill="#0D0D0D"/>
        <path d="M1036.15 993.129H1040.15V911.808H1036.15V993.129Z" fill="#0D0D0D"/>
        <path d="M1022.56 985.347H1026.56V919.704H1022.56V985.347Z" fill="#0D0D0D"/>
        <path d="M1096.25 997.077L1098.65 998.43H1106.65L1098.19 993.693L1096.25 997.077Z" fill="#0D0D0D"/>
        <path d="M1109.96 989.294L1125.96 998.43H1133.96L1112.02 985.91L1109.96 989.294Z" fill="#0D0D0D"/>
        <path d="M1146.75 998.43H1150.75L1164.92 990.309V985.798L1145.72 996.738L1146.75 998.43Z" fill="#0D0D0D"/>
        <path d="M1133.95 992.452L1164.92 974.745V970.233L1132.01 988.956L1133.95 992.452Z" fill="#0D0D0D"/>
        <path d="M1120.36 984.557L1164.92 959.179V954.668L1118.42 981.173L1120.36 984.557Z" fill="#0D0D0D"/>
        <path d="M1120.36 969.105L1164.92 943.727V939.103L1118.3 965.721L1120.36 969.105Z" fill="#0D0D0D"/>
        <path d="M1120.36 953.54L1164.92 928.163V923.651L1118.3 950.156L1120.36 953.54Z" fill="#0D0D0D"/>
        <path d="M1120.36 937.975L1164.92 912.598V908.086L1118.3 934.592L1120.36 937.975Z" fill="#0D0D0D"/>
        <path d="M1032.95 998.43H1039.01L1037.52 995.836L1032.95 998.43Z" fill="#0D0D0D"/>
        <path d="M1023.7 988.054L1005.65 998.43H1013.53L1025.76 991.55L1023.7 988.054Z" fill="#0D0D0D"/>
        <path d="M1077.06 999.669H1081.06V997.3H1077.06V999.669Z" fill="#0D0D0D"/>
        <path d="M1063.46 1007.68H1067.46V997.3H1063.46V1007.68Z" fill="#0D0D0D"/>
        <path d="M1049.75 999.669H1053.75V997.3H1049.75V999.669Z" fill="#0D0D0D"/>
        <path d="M1126.54 1091.07L1128.54 1087.65L1071.06 1054.88L1069.06 1058.3L1126.54 1091.07Z" fill="#0D0D0D"/>
        <path d="M1140.35 1083.42L1142.35 1080.01L1071.11 1039.4L1069.11 1042.82L1140.35 1083.42Z" fill="#0D0D0D"/>
        <path d="M1153.95 1075.53L1155.95 1072.11L1071.16 1023.78L1069.16 1027.2L1153.95 1075.53Z" fill="#0D0D0D"/>
        <path d="M1069.17 1011.62L1164.92 1066.21V1061.7L1071.11 1008.24L1069.17 1011.62Z" fill="#0D0D0D"/>
        <path d="M1082.54 1003.73L1164.92 1050.65V1046.14L1084.48 1000.35L1082.54 1003.73Z" fill="#0D0D0D"/>
        <path d="M1164.92 1030.57L1106.65 997.413H1098.65L1164.92 1035.08V1030.57Z" fill="#0D0D0D"/>
        <path d="M1164.92 1015.01L1133.95 997.413H1125.96L1164.92 1019.63V1015.01Z" fill="#0D0D0D"/>
        <path d="M1161.49 1006.77L1164.92 1004.86V1000.35L1159.43 1003.39L1161.49 1006.77Z" fill="#0D0D0D"/>
        <path d="M1150.75 997.413H1146.75L1147.67 999.105L1150.75 997.413Z" fill="#0D0D0D"/>
        <path d="M1009.14 1093.22L1066.43 1060.57L1064.43 1057.15L1007.14 1089.81L1009.14 1093.22Z" fill="#0D0D0D"/>
        <path d="M995.466 1085.49L1066.51 1045L1064.51 1041.58L993.466 1082.07L995.466 1085.49Z" fill="#0D0D0D"/>
        <path d="M981.699 1077.81L1066.49 1029.48L1064.49 1026.06L979.699 1074.39L981.699 1077.81Z" fill="#0D0D0D"/>
        <path d="M968.094 1069.95L1066.45 1013.9L1064.45 1010.48L966.095 1066.53L968.094 1069.95Z" fill="#0D0D0D"/>
        <path d="M968.073 1054.39L1053.07 1005.95L1051.07 1002.53L966.074 1050.97L968.073 1054.39Z" fill="#0D0D0D"/>
        <path d="M967.942 1038.92L1039.47 998.202L1039.01 997.413H1032.95L966 1035.54L967.942 1038.92Z" fill="#0D0D0D"/>
        <path d="M967.945 1023.35L1013.53 997.413H1005.65L966.002 1019.97L967.945 1023.35Z" fill="#0D0D0D"/>
        <path d="M1243.07 480.842H1247.07V480.614H1243.07V480.842Z" fill="#0D0D0D"/>
        <path d="M1229.47 480.842H1233.47V473.059H1229.47V480.842Z" fill="#0D0D0D"/>
        <path d="M1215.88 480.842H1219.88V465.39H1215.88V480.842Z" fill="#0D0D0D"/>
        <path d="M1202.17 480.842H1206.17V473.059H1202.17V480.842Z" fill="#0D0D0D"/>
        <path d="M1188.57 480.842H1192.57V480.614H1188.57V480.842Z" fill="#0D0D0D"/>
        <path d="M1221.48 455.351L1266.26 480.842H1274.15L1223.53 451.968L1221.48 455.351Z" fill="#0D0D0D"/>
        <path d="M1292.73 480.43L1294.73 477.011L1223.49 436.407L1221.49 439.826L1292.73 480.43Z" fill="#0D0D0D"/>
        <path d="M1306.28 472.634L1308.28 469.216L1223.48 420.886L1221.48 424.304L1306.28 472.634Z" fill="#0D0D0D"/>
        <path d="M1319.88 464.774L1321.88 461.356L1223.53 405.3L1221.53 408.718L1319.88 464.774Z" fill="#0D0D0D"/>
        <path d="M1319.98 449.273L1321.98 445.855L1236.98 397.412L1234.98 400.831L1319.98 449.273Z" fill="#0D0D0D"/>
        <path d="M1319.93 433.695L1321.93 430.276L1250.59 389.616L1248.59 393.035L1319.93 433.695Z" fill="#0D0D0D"/>
        <path d="M1319.98 418.194L1321.98 414.776L1264.39 381.954L1262.4 385.373L1319.98 418.194Z" fill="#0D0D0D"/>
        <path d="M1409.08 467.758H1413.08V402.115H1409.08V467.758Z" fill="#0D0D0D"/>
        <path d="M1395.49 475.541H1399.48V394.22H1395.49V475.541Z" fill="#0D0D0D"/>
        <path d="M1381.77 480.842H1385.77V386.663H1381.77V480.842Z" fill="#0D0D0D"/>
        <path d="M1368.18 480.842H1372.18V378.881H1368.18V480.842Z" fill="#0D0D0D"/>
        <path d="M1354.47 480.842H1358.47V386.663H1354.47V480.842Z" fill="#0D0D0D"/>
        <path d="M1340.87 475.541H1344.87V394.22H1340.87V475.541Z" fill="#0D0D0D"/>
        <path d="M1327.27 467.758H1331.27V402.115H1327.27V467.758Z" fill="#0D0D0D"/>
        <path d="M1400.97 479.488L1403.37 480.842H1411.37L1402.91 476.105L1400.97 479.488Z" fill="#0D0D0D"/>
        <path d="M1414.68 471.706L1430.68 480.842H1438.67L1416.74 468.322L1414.68 471.706Z" fill="#0D0D0D"/>
        <path d="M1438.67 474.864L1469.64 457.156V452.645L1436.73 471.368L1438.67 474.864Z" fill="#0D0D0D"/>
        <path d="M1425.08 466.969L1469.64 441.591V437.08L1423.14 463.585L1425.08 466.969Z" fill="#0D0D0D"/>
        <path d="M1425.08 451.517L1469.64 426.139V421.515L1423.02 448.133L1425.08 451.517Z" fill="#0D0D0D"/>
        <path d="M1425.08 435.952L1469.64 410.574V406.063L1423.02 432.568L1425.08 435.952Z" fill="#0D0D0D"/>
        <path d="M1425.08 420.387L1469.64 395.01V390.498L1423.02 417.004L1425.08 420.387Z" fill="#0D0D0D"/>
        <path d="M1337.67 480.842H1343.73L1342.24 478.248L1337.67 480.842Z" fill="#0D0D0D"/>
        <path d="M1328.42 470.465L1310.37 480.842H1318.25L1330.47 473.962L1328.42 470.465Z" fill="#0D0D0D"/>
        <path d="M1256.78 553.138H1260.78V487.495H1256.78V553.138Z" fill="#0D0D0D"/>
        <path d="M1243.07 560.92H1247.07V479.712H1243.07V560.92Z" fill="#0D0D0D"/>
        <path d="M1229.47 568.477H1233.47V479.712H1229.47V568.477Z" fill="#0D0D0D"/>
        <path d="M1215.88 576.485H1219.88V479.712H1215.88V576.485Z" fill="#0D0D0D"/>
        <path d="M1202.17 568.477H1206.17V479.712H1202.17V568.477Z" fill="#0D0D0D"/>
        <path d="M1188.57 560.92H1192.57V479.712H1188.57V560.92Z" fill="#0D0D0D"/>
        <path d="M1174.86 553.138H1178.86V487.495H1174.86V553.138Z" fill="#0D0D0D"/>
        <path d="M1281 483.66L1274.15 479.825H1266.27L1278.95 487.043L1281 483.66Z" fill="#0D0D0D"/>
        <path d="M1381.77 482.081H1385.77V479.712H1381.77V482.081Z" fill="#0D0D0D"/>
        <path d="M1368.18 490.089H1372.18V479.712H1368.18V490.089Z" fill="#0D0D0D"/>
        <path d="M1354.47 482.081H1358.47V479.712H1354.47V482.081Z" fill="#0D0D0D"/>
        <path d="M1431.26 573.478L1433.26 570.059L1375.77 537.294L1373.78 540.713L1431.26 573.478Z" fill="#0D0D0D"/>
        <path d="M1445.07 565.836L1447.07 562.418L1375.83 521.814L1373.83 525.232L1445.07 565.836Z" fill="#0D0D0D"/>
        <path d="M1458.67 557.943L1460.67 554.524L1375.88 506.194L1373.88 509.612L1458.67 557.943Z" fill="#0D0D0D"/>
        <path d="M1373.89 494.036L1469.64 548.626V544.115L1375.83 490.653L1373.89 494.036Z" fill="#0D0D0D"/>
        <path d="M1387.26 486.141L1469.64 533.061V528.55L1389.2 482.758L1387.26 486.141Z" fill="#0D0D0D"/>
        <path d="M1469.64 512.985L1411.37 479.825H1403.37L1469.64 517.496V512.985Z" fill="#0D0D0D"/>
        <path d="M1469.64 497.42L1438.67 479.825H1430.68L1469.64 502.044V497.42Z" fill="#0D0D0D"/>
        <path d="M1243.07 652.617H1247.07V652.39H1243.07V652.617Z" fill="#0D0D0D"/>
        <path d="M1188.57 652.617H1192.57V652.39H1188.57V652.617Z" fill="#0D0D0D"/>
        <path d="M1221.48 627.127L1266.26 652.617H1274.15L1223.53 623.743L1221.48 627.127Z" fill="#0D0D0D"/>
        <path d="M1292.73 652.206L1294.73 648.787L1223.49 608.183L1221.49 611.602L1292.73 652.206Z" fill="#0D0D0D"/>
        <path d="M1306.28 644.41L1308.28 640.991L1223.48 592.661L1221.48 596.08L1306.28 644.41Z" fill="#0D0D0D"/>
        <path d="M1319.88 636.55L1321.88 633.132L1223.53 577.076L1221.53 580.494L1319.88 636.55Z" fill="#0D0D0D"/>
        <path d="M1319.98 621.049L1321.98 617.63L1236.98 569.187L1234.98 572.606L1319.98 621.049Z" fill="#0D0D0D"/>
        <path d="M1319.93 605.471L1321.93 602.052L1250.59 561.392L1248.59 564.81L1319.93 605.471Z" fill="#0D0D0D"/>
        <path d="M1319.98 589.97L1321.98 586.551L1264.39 553.73L1262.4 557.148L1319.98 589.97Z" fill="#0D0D0D"/>
        <path d="M1313.86 575.635L1371.15 542.983L1369.15 539.564L1311.86 572.217L1313.86 575.635Z" fill="#0D0D0D"/>
        <path d="M1300.18 567.898L1371.23 527.407L1369.23 523.988L1298.18 564.479L1300.18 567.898Z" fill="#0D0D0D"/>
        <path d="M1286.42 560.223L1371.21 511.893L1369.21 508.474L1284.42 556.804L1286.42 560.223Z" fill="#0D0D0D"/>
        <path d="M1272.81 552.365L1371.16 496.309L1369.16 492.89L1270.81 548.946L1272.81 552.365Z" fill="#0D0D0D"/>
        <path d="M1272.79 536.802L1357.79 488.36L1355.79 484.941L1270.79 533.384L1272.79 536.802Z" fill="#0D0D0D"/>
        <path d="M1272.66 521.331L1344.18 480.614L1343.73 479.825H1337.67L1270.72 517.947L1272.66 521.331Z" fill="#0D0D0D"/>
        <path d="M1272.66 505.766L1318.25 479.825H1310.37L1270.72 502.383L1272.66 505.766Z" fill="#0D0D0D"/>
        <path d="M1409.08 639.534H1413.08V573.891H1409.08V639.534Z" fill="#0D0D0D"/>
        <path d="M1395.49 647.316H1399.48V565.996H1395.49V647.316Z" fill="#0D0D0D"/>
        <path d="M1381.77 652.617H1385.77V558.439H1381.77V652.617Z" fill="#0D0D0D"/>
        <path d="M1368.18 652.617H1372.18V550.656H1368.18V652.617Z" fill="#0D0D0D"/>
        <path d="M1354.47 652.617H1358.47V558.439H1354.47V652.617Z" fill="#0D0D0D"/>
        <path d="M1340.87 647.316H1344.87V565.996H1340.87V647.316Z" fill="#0D0D0D"/>
        <path d="M1327.27 639.534H1331.27V573.891H1327.27V639.534Z" fill="#0D0D0D"/>
        <path d="M1400.97 651.264L1403.37 652.617H1411.37L1402.91 647.88L1400.97 651.264Z" fill="#0D0D0D"/>
        <path d="M1414.68 643.481L1430.68 652.617H1438.67L1416.74 640.098L1414.68 643.481Z" fill="#0D0D0D"/>
        <path d="M1438.67 646.64L1469.64 628.932V624.42L1436.73 643.143L1438.67 646.64Z" fill="#0D0D0D"/>
        <path d="M1425.08 638.744L1469.64 613.367V608.855L1423.14 635.361L1425.08 638.744Z" fill="#0D0D0D"/>
        <path d="M1425.08 623.292L1469.64 597.915V593.29L1423.02 619.908L1425.08 623.292Z" fill="#0D0D0D"/>
        <path d="M1425.08 607.727L1469.64 582.35V577.839L1423.02 604.344L1425.08 607.727Z" fill="#0D0D0D"/>
        <path d="M1425.08 592.163L1469.64 566.785V562.273L1423.02 588.779L1425.08 592.163Z" fill="#0D0D0D"/>
        <path d="M1337.67 652.617H1343.73L1342.24 650.023L1337.67 652.617Z" fill="#0D0D0D"/>
        <path d="M1328.42 642.241L1310.37 652.617H1318.25L1330.47 645.737L1328.42 642.241Z" fill="#0D0D0D"/>
        <path d="M1281 656.565L1274.15 652.73H1266.27L1278.95 659.948L1281 656.565Z" fill="#0D0D0D"/>
        <path d="M1381.77 654.986H1385.77V652.618H1381.77V654.986Z" fill="#0D0D0D"/>
        <path d="M1368.18 662.994H1372.18V652.617H1368.18V662.994Z" fill="#0D0D0D"/>
        <path d="M1354.47 654.986H1358.47V652.618H1354.47V654.986Z" fill="#0D0D0D"/>
        <path d="M1431.26 746.383L1433.26 742.965L1375.77 710.2L1373.78 713.618L1431.26 746.383Z" fill="#0D0D0D"/>
        <path d="M1445.07 738.742L1447.07 735.323L1375.83 694.719L1373.83 698.138L1445.07 738.742Z" fill="#0D0D0D"/>
        <path d="M1458.67 730.848L1460.67 727.43L1375.88 679.099L1373.88 682.518L1458.67 730.848Z" fill="#0D0D0D"/>
        <path d="M1373.89 666.942L1469.64 721.532V717.02L1375.83 663.558L1373.89 666.942Z" fill="#0D0D0D"/>
        <path d="M1387.26 659.046L1469.64 705.967V701.455L1389.2 655.663L1387.26 659.046Z" fill="#0D0D0D"/>
        <path d="M1469.64 685.89L1411.37 652.73H1403.37L1469.64 690.402V685.89Z" fill="#0D0D0D"/>
        <path d="M1469.64 670.325L1438.67 652.73H1430.68L1469.64 674.95V670.325Z" fill="#0D0D0D"/>
        <path d="M1243.07 825.523H1247.07V825.295H1243.07V825.523Z" fill="#0D0D0D"/>
        <path d="M1229.47 825.523H1233.47V817.74H1229.47V825.523Z" fill="#0D0D0D"/>
        <path d="M1215.88 825.523H1219.88V810.071H1215.88V825.523Z" fill="#0D0D0D"/>
        <path d="M1202.17 825.523H1206.17V817.74H1202.17V825.523Z" fill="#0D0D0D"/>
        <path d="M1188.57 825.523H1192.57V825.295H1188.57V825.523Z" fill="#0D0D0D"/>
        <path d="M1221.48 800.032L1266.26 825.523H1274.15L1223.53 796.649L1221.48 800.032Z" fill="#0D0D0D"/>
        <path d="M1292.73 825.111L1294.73 821.693L1223.49 781.088L1221.49 784.507L1292.73 825.111Z" fill="#0D0D0D"/>
        <path d="M1306.28 817.315L1308.28 813.896L1223.48 765.566L1221.48 768.985L1306.28 817.315Z" fill="#0D0D0D"/>
        <path d="M1319.88 809.456L1321.88 806.037L1223.53 749.981L1221.53 753.4L1319.88 809.456Z" fill="#0D0D0D"/>
        <path d="M1319.98 793.954L1321.98 790.535L1236.98 742.092L1234.98 745.511L1319.98 793.954Z" fill="#0D0D0D"/>
        <path d="M1319.93 778.376L1321.93 774.957L1250.59 734.297L1248.59 737.716L1319.93 778.376Z" fill="#0D0D0D"/>
        <path d="M1319.98 762.875L1321.98 759.457L1264.39 726.635L1262.4 730.054L1319.98 762.875Z" fill="#0D0D0D"/>
        <path d="M1313.86 748.54L1371.15 715.888L1369.15 712.469L1311.86 745.122L1313.86 748.54Z" fill="#0D0D0D"/>
        <path d="M1300.18 740.803L1371.23 700.312L1369.23 696.893L1298.18 737.384L1300.18 740.803Z" fill="#0D0D0D"/>
        <path d="M1286.42 733.128L1371.21 684.798L1369.21 681.379L1284.42 729.71L1286.42 733.128Z" fill="#0D0D0D"/>
        <path d="M1272.81 725.27L1371.16 669.214L1369.16 665.795L1270.81 721.852L1272.81 725.27Z" fill="#0D0D0D"/>
        <path d="M1272.79 709.708L1357.79 661.265L1355.79 657.846L1270.79 706.289L1272.79 709.708Z" fill="#0D0D0D"/>
        <path d="M1272.66 694.236L1344.18 653.519L1343.73 652.73H1337.67L1270.72 690.853L1272.66 694.236Z" fill="#0D0D0D"/>
        <path d="M1272.66 678.671L1318.25 652.73H1310.37L1270.72 675.288L1272.66 678.671Z" fill="#0D0D0D"/>
        <path d="M1409.08 812.439H1413.08V746.796H1409.08V812.439Z" fill="#0D0D0D"/>
        <path d="M1395.49 820.222H1399.48V738.901H1395.49V820.222Z" fill="#0D0D0D"/>
        <path d="M1381.77 825.523H1385.77V731.344H1381.77V825.523Z" fill="#0D0D0D"/>
        <path d="M1368.18 825.523H1372.18V723.562H1368.18V825.523Z" fill="#0D0D0D"/>
        <path d="M1354.47 825.523H1358.47V731.344H1354.47V825.523Z" fill="#0D0D0D"/>
        <path d="M1340.87 820.222H1344.87V738.901H1340.87V820.222Z" fill="#0D0D0D"/>
        <path d="M1327.27 812.439H1331.27V746.796H1327.27V812.439Z" fill="#0D0D0D"/>
        <path d="M1400.97 824.169L1403.37 825.523H1411.37L1402.91 820.785L1400.97 824.169Z" fill="#0D0D0D"/>
        <path d="M1414.68 816.387L1430.68 825.523H1438.67L1416.74 813.003L1414.68 816.387Z" fill="#0D0D0D"/>
        <path d="M1438.67 819.545L1469.64 801.837V797.326L1436.73 816.049L1438.67 819.545Z" fill="#0D0D0D"/>
        <path d="M1425.08 811.65L1469.64 786.272V781.76L1423.14 808.266L1425.08 811.65Z" fill="#0D0D0D"/>
        <path d="M1425.08 796.197L1469.64 770.82V766.195L1423.02 792.814L1425.08 796.197Z" fill="#0D0D0D"/>
        <path d="M1425.08 780.632L1469.64 755.255V750.743L1423.02 777.249L1425.08 780.632Z" fill="#0D0D0D"/>
        <path d="M1425.08 765.068L1469.64 739.69V735.179L1423.02 761.684L1425.08 765.068Z" fill="#0D0D0D"/>
        <path d="M1337.67 825.523H1343.73L1342.24 822.929L1337.67 825.523Z" fill="#0D0D0D"/>
        <path d="M1328.42 815.146L1310.37 825.523H1318.25L1330.47 818.643L1328.42 815.146Z" fill="#0D0D0D"/>
    </g>
</svg>
